<?xml version="1.0" encoding="UTF-8" standalone="no"?>
<svg
   xmlns:dc="http://purl.org/dc/elements/1.1/"
   xmlns:cc="http://creativecommons.org/ns#"
   xmlns:rdf="http://www.w3.org/1999/02/22-rdf-syntax-ns#"
   xmlns:svg="http://www.w3.org/2000/svg"
   xmlns="http://www.w3.org/2000/svg"
   xmlns:xlink="http://www.w3.org/1999/xlink"
   xmlns:sodipodi="http://sodipodi.sourceforge.net/DTD/sodipodi-0.dtd"
   xmlns:inkscape="http://www.inkscape.org/namespaces/inkscape"
   version="1.1"
   width="705"
   height="452.5"
   id="svg2"
   sodipodi:docname="How_Tor_Works_3.svg"
   inkscape:version="0.92.1 r15371">
  <sodipodi:namedview
     pagecolor="#ffffff"
     bordercolor="#666666"
     borderopacity="1"
     objecttolerance="10"
     gridtolerance="10"
     guidetolerance="10"
     inkscape:pageopacity="0"
     inkscape:pageshadow="2"
     inkscape:window-width="1326"
     inkscape:window-height="812"
     id="namedview301"
     showgrid="false"
     inkscape:zoom="1.21"
     inkscape:cx="360.77057"
     inkscape:cy="226.25"
     inkscape:window-x="0"
     inkscape:window-y="25"
     inkscape:window-maximized="0"
     inkscape:current-layer="svg2" />
  <metadata
     id="metadata8">
    <rdf:RDF>
      <cc:Work
         rdf:about="">
        <dc:format>image/svg+xml</dc:format>
        <dc:type
           rdf:resource="http://purl.org/dc/dcmitype/StillImage" />
        <dc:title />
      </cc:Work>
    </rdf:RDF>
  </metadata>
  <defs
     id="defs6">
    <linearGradient
       id="linearGradient5694">
      <stop
         id="stop5696"
         style="stop-color:#616971;stop-opacity:1"
         offset="0" />
      <stop
         id="stop5884"
         style="stop-color:#b3b7bd;stop-opacity:1"
         offset="0.5" />
      <stop
         id="stop5698"
         style="stop-color:#616971;stop-opacity:1"
         offset="1" />
    </linearGradient>
    <linearGradient
       id="linearGradient5344">
      <stop
         id="stop5346"
         style="stop-color:#000000;stop-opacity:1"
         offset="0" />
      <stop
         id="stop5348"
         style="stop-color:#ffffff;stop-opacity:1"
         offset="1" />
    </linearGradient>
    <linearGradient
       id="linearGradient5257">
      <stop
         id="stop5259"
         style="stop-color:#94a0a9;stop-opacity:1"
         offset="0" />
      <stop
         id="stop5267"
         style="stop-color:#dee3ee;stop-opacity:1"
         offset="0.5" />
      <stop
         id="stop5265"
         style="stop-color:#94a0a9;stop-opacity:1"
         offset="1" />
    </linearGradient>
    <linearGradient
       id="linearGradient5211">
      <stop
         id="stop5213"
         style="stop-color:#68727e;stop-opacity:1"
         offset="0" />
      <stop
         id="stop5221"
         style="stop-color:#dee4ea;stop-opacity:1"
         offset="0.5" />
      <stop
         id="stop5215"
         style="stop-color:#68727e;stop-opacity:1"
         offset="1" />
    </linearGradient>
    <linearGradient
       id="linearGradient9402">
      <stop
         id="stop9404"
         style="stop-color:#ffffff;stop-opacity:1"
         offset="0" />
      <stop
         id="stop9406"
         style="stop-color:#ebe6c8;stop-opacity:1"
         offset="1" />
    </linearGradient>
    <linearGradient
       id="linearGradient8975">
      <stop
         id="stop8977"
         style="stop-color:#ffffff;stop-opacity:1"
         offset="0" />
      <stop
         id="stop8979"
         style="stop-color:#d4cd97;stop-opacity:1"
         offset="1" />
    </linearGradient>
    <linearGradient
       id="linearGradient8511">
      <stop
         id="stop8513"
         style="stop-color:#ffffff;stop-opacity:1"
         offset="0" />
      <stop
         id="stop8515"
         style="stop-color:#d4cd97;stop-opacity:1"
         offset="1" />
    </linearGradient>
    <linearGradient
       id="linearGradient8300">
      <stop
         id="stop8302"
         style="stop-color:#ffffff;stop-opacity:1"
         offset="0" />
      <stop
         id="stop8304"
         style="stop-color:#e8e7c9;stop-opacity:1"
         offset="1" />
    </linearGradient>
    <linearGradient
       id="linearGradient8102">
      <stop
         id="stop8104"
         style="stop-color:#dbdbdb;stop-opacity:1"
         offset="0" />
      <stop
         id="stop8106"
         style="stop-color:#878787;stop-opacity:1"
         offset="1" />
    </linearGradient>
    <linearGradient
       id="linearGradient7870">
      <stop
         id="stop7872"
         style="stop-color:#c3bd81;stop-opacity:1"
         offset="0" />
      <stop
         id="stop7874"
         style="stop-color:#ffffff;stop-opacity:1"
         offset="1" />
    </linearGradient>
    <linearGradient
       id="linearGradient7703">
      <stop
         id="stop7705"
         style="stop-color:#fdfdfb;stop-opacity:1"
         offset="0" />
      <stop
         id="stop7707"
         style="stop-color:#e9e8cb;stop-opacity:1"
         offset="1" />
    </linearGradient>
    <linearGradient
       id="linearGradient6917">
      <stop
         id="stop6919"
         style="stop-color:#f5f0d0;stop-opacity:1"
         offset="0" />
      <stop
         id="stop6921"
         style="stop-color:#fefefe;stop-opacity:1"
         offset="1" />
    </linearGradient>
    <linearGradient
       id="linearGradient4789">
      <stop
         id="stop4791"
         style="stop-color:#bcbcbc;stop-opacity:1"
         offset="0" />
      <stop
         id="stop4793"
         style="stop-color:#000000;stop-opacity:1"
         offset="1" />
    </linearGradient>
    <linearGradient
       id="linearGradient21776">
      <stop
         id="stop21778"
         style="stop-color:#ffffff;stop-opacity:1"
         offset="0" />
      <stop
         id="stop21780"
         style="stop-color:#00b317;stop-opacity:1"
         offset="1" />
    </linearGradient>
    <clipPath
       id="clipPath656">
      <path
         d="M 0,0 564,0 564,362 0,362 0,0 z"
         id="path658" />
    </clipPath>
    <radialGradient
       cx="239.343"
       cy="74.299004"
       r="9.25"
       fx="239.343"
       fy="74.299004"
       id="radialGradient21958"
       xlink:href="#linearGradient21776"
       gradientUnits="userSpaceOnUse"
       gradientTransform="matrix(0.9677531,-0.9677531,0.9677531,0.9677531,-64.185023,234.02085)" />
    <linearGradient
       x1="443.51697"
       y1="294.375"
       x2="443.51697"
       y2="283.36124"
       id="linearGradient9821"
       xlink:href="#linearGradient8975"
       gradientUnits="userSpaceOnUse"
       gradientTransform="translate(2.9785999e-6,4.7906001e-6)" />
    <linearGradient
       x1="387.38199"
       y1="320.90665"
       x2="387.38199"
       y2="310.92001"
       id="linearGradient9823"
       xlink:href="#linearGradient8511"
       gradientUnits="userSpaceOnUse" />
    <linearGradient
       x1="391.28323"
       y1="311.34634"
       x2="391.28323"
       y2="290.24066"
       id="linearGradient9825"
       xlink:href="#linearGradient8300"
       gradientUnits="userSpaceOnUse" />
    <linearGradient
       x1="390.47699"
       y1="342.11154"
       x2="390.47699"
       y2="320.64099"
       id="linearGradient9827"
       xlink:href="#linearGradient7703"
       gradientUnits="userSpaceOnUse" />
    <linearGradient
       x1="441.595"
       y1="286.55978"
       x2="441.595"
       y2="226.08098"
       id="linearGradient9829"
       xlink:href="#linearGradient9402"
       gradientUnits="userSpaceOnUse" />
    <linearGradient
       x1="443.11517"
       y1="307.67932"
       x2="443.51697"
       y2="219.12102"
       id="linearGradient9831"
       xlink:href="#linearGradient8102"
       gradientUnits="userSpaceOnUse" />
    <linearGradient
       x1="367.36255"
       y1="321.70804"
       x2="367.36255"
       y2="311.63873"
       id="linearGradient9833"
       xlink:href="#linearGradient7870"
       gradientUnits="userSpaceOnUse" />
    <linearGradient
       x1="454.89343"
       y1="564.22632"
       x2="454.89343"
       y2="340.19226"
       id="linearGradient9835"
       xlink:href="#linearGradient6917"
       gradientUnits="userSpaceOnUse" />
    <radialGradient
       cx="211.34268"
       cy="591.82489"
       r="123.65566"
       fx="211.34268"
       fy="591.82489"
       id="radialGradient9837"
       xlink:href="#linearGradient4789"
       gradientUnits="userSpaceOnUse"
       gradientTransform="matrix(1.5348592,-1.1777308,1.1777397,1.5348498,-790.13072,-97.217185)" />
    <filter
       x="-0.11517666"
       y="-0.10166524"
       width="1.2303534"
       height="1.2033305"
       color-interpolation-filters="sRGB"
       id="filter4189">
      <feGaussianBlur
         stdDeviation="2.087577"
         id="feGaussianBlur4191" />
    </filter>
    <linearGradient
       x1="122"
       y1="396"
       x2="489"
       y2="396"
       id="linearGradient5217"
       xlink:href="#linearGradient5211"
       gradientUnits="userSpaceOnUse" />
    <radialGradient
       cx="174.5"
       cy="406.17801"
       r="4.2695107"
       fx="174.5"
       fy="406.17801"
       id="radialGradient5263"
       xlink:href="#linearGradient5257"
       gradientUnits="userSpaceOnUse" />
    <linearGradient
       x1="308.36926"
       y1="404.56219"
       x2="305.57251"
       y2="407.36911"
       id="linearGradient5672"
       xlink:href="#linearGradient5344"
       gradientUnits="userSpaceOnUse" />
    <radialGradient
       cx="128.74651"
       cy="395.0925"
       r="5.6855001"
       fx="128.74651"
       fy="395.0925"
       id="radialGradient5882"
       xlink:href="#linearGradient5694"
       gradientUnits="userSpaceOnUse"
       gradientTransform="matrix(0.9120594,0,0,0.9120594,11.322044,34.74467)" />
    <filter
       x="-0.058811881"
       y="-0.66000003"
       width="1.1176238"
       height="2.3199999"
       color-interpolation-filters="sRGB"
       id="filter4038">
      <feGaussianBlur
         stdDeviation="2.0109375"
         id="feGaussianBlur4040" />
    </filter>
  </defs>
  <g
     transform="matrix(1.25,0,0,-1.25,0,452.5)"
     id="g4061">
    <g
       transform="matrix(1,0,0,-1,-5.5,360.5)"
       id="g4468">
      <path
         d="m 7.32526,1.20483 561.34874,0 0,357.83117 -561.34874,0 0,-357.83117 z"
         id="path4470"
         style="fill:#ffffff;stroke:#000000;stroke-width:0.5;stroke-linecap:round;stroke-linejoin:round;stroke-miterlimit:10" />
    </g>
    <g
       id="g234">
      <g
         transform="matrix(1,0,0,-1,109,150.946)"
         id="g240" />
      <g
         transform="matrix(1,0,0,-1,109,150.946)"
         id="g264" />
      <g
         transform="matrix(1,0,0,-1,109,150.946)"
         id="g278" />
      <g
         transform="matrix(1,0,0,-1,109,150.946)"
         id="g296" />
      <g
         transform="matrix(1,0,0,-1,109,150.946)"
         id="g316" />
      <g
         transform="matrix(1,0,0,-1,109,150.946)"
         id="g328">
        <text
           transform="translate(-48.5781,20)"
           id="text330">
          <tspan
             x="0"
             y="0"
             id="tspan332"
             style="font-size:14px;font-weight:bold;fill:#00a900;font-family:Liberation Sans">green links</tspan>
        </text>
      </g>
      <g
         transform="matrix(1,0,0,-1,109,150.946)"
         id="g352">
        <text
           transform="translate(29.1738,20)"
           id="text354">
          <tspan
             x="0 8.316"
             y="0"
             id="tspan356"
             style="font-size:14px;font-weight:bold;font-family:Liberation Sans">are</tspan>
        </text>
      </g>
      <g
         transform="matrix(1,0,0,-1,109,150.946)"
         id="g366">
        <text
           transform="translate(-99,36)"
           id="text368">
          <tspan
             x="0 8.316 16.771999 25.087999 31.219999 38.807999 47.557999 52.514 60.830002 69.580002 73.961998"
             y="0"
             id="tspan370"
             style="font-size:14px;font-weight:bold;font-family:Liberation Sans">encrypted,</tspan>
        </text>
      </g>
      <g
         transform="matrix(1,0,0,-1,109,150.946)"
         id="g372">
        <text
           transform="translate(-21.5283,36)"
           id="text374">
          <tspan
             x="0"
             y="0"
             id="tspan376"
             style="font-size:14px;font-weight:bold;fill:#e42200;font-family:Liberation Sans">red links</tspan>
        </text>
      </g>
      <g
         transform="matrix(1,0,0,-1,109,150.946)"
         id="g390">
        <text
           transform="translate(39.6328,36)"
           id="text392">
          <tspan
             x="0 8.316"
             y="0"
             id="tspan394"
             style="font-size:14px;font-weight:bold;font-family:Liberation Sans">are</tspan>
        </text>
      </g>
      <g
         transform="matrix(1,0,0,-1,109,150.946)"
         id="g402">
        <text
           transform="translate(-99,52)"
           id="text404">
          <tspan
             x="0 3.7939999 12.25 15.75 20.705999 29.162001 37.478001 40.978001"
             y="0"
             id="tspan406"
             style="font-size:14px;font-weight:bold;font-family:Liberation Sans">in the clear.</tspan>
        </text>
      </g>
    </g>
    <g
       transform="matrix(1,0,0,-1,-5.5,360.5)"
       id="g242">
      <path
         d="m 560.675,9.2048 -140.699,0 0,59.0361 140.699,0 0,-59.0361 z"
         id="path244"
         style="fill:#e6e6e6;stroke:#000000;stroke-width:0.5;stroke-linecap:round;stroke-linejoin:round;stroke-miterlimit:10" />
    </g>
    <g
       id="g246">
      <path
         d="m 21.15625,61.34375 c -0.943797,0 -1.71875,0.777712 -1.71875,1.71875 l 0,3.90625 c 0,0.941038 0.774953,1.6875 1.71875,1.6875 l 78.625,0 c 0.94379,0 1.71875,-0.746461 1.71875,-1.6875 l 0,-3.90625 c 0,-0.941039 -0.77496,-1.71875 -1.71875,-1.71875 z"
         id="path5916"
         style="fill:#7f7f7f;filter:url(#filter4038)" />
      <g
         transform="matrix(0.22303,0,0,0.222222,-7.66112,-20.997)"
         id="g260">
        <path
           d="m 489,387.2 c 0,-3.96 -3.24,-7.2 -7.2,-7.2 l -352.6,0 c -3.96,0 -7.2,3.24 -7.2,7.2 l 0,17.6 c 0,3.96 3.24,7.2 7.2,7.2 l 352.6,0 c 3.96,0 7.2,-3.24 7.2,-7.2 l 0,-17.6 0,0 z"
           id="path278"
           style="fill:url(#linearGradient5217);stroke:#999ca0;stroke-width:1.00168157" />
        <g
           id="g290">
          <path
             d="m 222.5,380.5 -84,0 0.5,-0.5 0,20 -0.5,-0.5 84,0 -0.5,0.5 0,-20 0.5,0.5 0,0 m 0,20 -84,0 -0.5,0 0,-0.5 0,-20 0,-0.5 0.5,0 84,0 0.5,0 0,0.5 0,20 0,0.5 -0.5,0 0,0 z"
             id="path294"
             style="fill:#292c2c" />
          <path
             d="m 306.5,380.5 -84,0 0.5,-0.5 0,20 -0.5,-0.5 84,0 -0.5,0.5 0,-20 0.5,0.5 0,0 m 0,20 -84,0 -0.5,0 0,-0.5 0,-20 0,-0.5 0.5,0 84,0 0.5,0 0,0.5 0,20 0,0.5 -0.5,0 0,0 z"
             id="path296"
             style="fill:#292c2c" />
          <path
             d="m 391,380.5 -84,0 0.5,-0.5 0,20 -0.5,-0.5 84,0 -0.5,0.5 0,-20 0.5,0.5 0,0 m 0,20 -84,0 -0.5,0 0,-0.5 0,-20 0,-0.5 0.5,0 84,0 0.5,0 0,0.5 0,20 0,0.5 -0.5,0 0,0 z"
             id="path298"
             style="fill:#292c2c" />
          <path
             d="m 474.5,380.5 -84,0 0.5,-0.5 0,20 -0.5,-0.5 84,0 -0.5,0.5 0,-20 0.5,0.5 0,0 m 0,20 -84,0 -0.5,0 0,-0.5 0,-20 0,-0.5 0.5,0 84,0 0.5,0 0,0.5 0,20 0,0.5 -0.5,0 0,0 z"
             id="path300"
             style="fill:#292c2c" />
          <path
             d="m 138.5,380.5 0,32 -1,0 0,-32 1,0 0,0 z"
             id="path302"
             style="fill:#292c2c" />
          <path
             d="m 475.5,380.5 0,32 -1,0 0,-32 1,0 0,0 z"
             id="path304"
             style="fill:#292c2c" />
          <path
             d="m 370,411.5 0,-11.5 1,0 0,11.5 -1,0 0,0 z"
             id="path306"
             style="fill:#000000" />
        </g>
        <path
           d="m 306.252,403.772 c -0.083,-0.041 -0.317,-0.142 -0.592,-0.092 -0.285,0.051 -0.426,0.159 -0.526,0.251 -0.426,0.384 -0.635,0.742 -0.91,1.336 -0.201,0.433 -0.426,1.351 -0.318,1.927 0.134,0.719 0.426,1.111 0.719,1.336 0.441,0.351 1.143,0.375 1.46,0.293 0.259,-0.068 0.442,-0.226 0.743,-0.226 0.309,0 0.493,0.158 0.743,0.226 0.326,0.082 1.027,0.058 1.47,-0.293 0.133,-0.1 0.25,-0.242 0.316,-0.317 -0.334,-0.242 -0.425,-0.342 -0.559,-0.567 -0.1,-0.167 -0.226,-0.468 -0.216,-0.835 0.008,-0.292 0.133,-0.635 0.274,-0.818 0.301,-0.401 0.435,-0.401 0.677,-0.526 -0.367,-0.794 -0.576,-1.152 -0.91,-1.453 -0.175,-0.15 -0.226,-0.283 -0.618,-0.334 -0.276,-0.05 -0.51,0.051 -0.601,0.092 -0.267,0.125 -0.409,0.167 -0.576,0.167 -0.159,0 -0.301,-0.042 -0.576,-0.167 l 0,0 m 1.87,6.144 c -0.033,-0.184 -0.134,-0.418 -0.283,-0.568 -0.168,-0.166 -0.418,-0.35 -0.568,-0.443 -0.084,-0.049 -0.293,-0.057 -0.468,-0.074 -0.017,0.149 -0.017,0.283 0.042,0.426 0.066,0.166 0.158,0.409 0.292,0.576 0.167,0.208 0.35,0.35 0.451,0.4 0.134,0.067 0.358,0.167 0.551,0.201 0,-0.167 0.016,-0.359 -0.017,-0.518 l 0,0 z"
           id="path332"
           style="fill:url(#linearGradient5672);stroke:#7e7f81;stroke-width:0.49410304" />
        <g
           id="g344">
          <path
             d="m 236.823,402.928 c 0,-0.414 -0.294,-0.75 -0.656,-0.75 -0.363,0 -0.657,0.336 -0.657,0.75 l 0,6.5 c 0,0.414 0.294,0.75 0.657,0.75 0.362,0 0.656,-0.336 0.656,-0.75 l 0,-6.5 0,0 z"
             id="path350"
             style="fill:#292c2c" />
          <path
             d="m 239.632,402.928 c 0,-0.414 -0.294,-0.75 -0.656,-0.75 -0.362,0 -0.656,0.336 -0.656,0.75 l 0,6.5 c 0,0.414 0.294,0.75 0.656,0.75 0.362,0 0.656,-0.336 0.656,-0.75 l 0,-6.5 0,0 z"
             id="path352"
             style="fill:#292c2c" />
          <path
             d="m 242.442,402.928 c 0,-0.414 -0.294,-0.75 -0.656,-0.75 -0.363,0 -0.657,0.336 -0.657,0.75 l 0,6.5 c 0,0.414 0.294,0.75 0.657,0.75 0.362,0 0.656,-0.336 0.656,-0.75 l 0,-6.5 0,0 z"
             id="path354"
             style="fill:#292c2c" />
          <path
             d="m 245.251,402.928 c 0,-0.414 -0.293,-0.75 -0.656,-0.75 -0.362,0 -0.656,0.336 -0.656,0.75 l 0,6.5 c 0,0.414 0.294,0.75 0.656,0.75 0.363,0 0.656,-0.336 0.656,-0.75 l 0,-6.5 0,0 z"
             id="path356"
             style="fill:#292c2c" />
          <path
             d="m 248.061,402.928 c 0,-0.414 -0.294,-0.75 -0.656,-0.75 -0.363,0 -0.656,0.336 -0.656,0.75 l 0,6.5 c 0,0.414 0.293,0.75 0.656,0.75 0.362,0 0.656,-0.336 0.656,-0.75 l 0,-6.5 0,0 z"
             id="path358"
             style="fill:#292c2c" />
          <path
             d="m 250.871,402.928 c 0,-0.414 -0.294,-0.75 -0.657,-0.75 -0.362,0 -0.656,0.336 -0.656,0.75 l 0,6.5 c 0,0.414 0.294,0.75 0.656,0.75 0.363,0 0.657,-0.336 0.657,-0.75 l 0,-6.5 0,0 z"
             id="path360"
             style="fill:#292c2c" />
          <path
             d="m 253.68,402.928 c 0,-0.414 -0.294,-0.75 -0.656,-0.75 -0.362,0 -0.656,0.336 -0.656,0.75 l 0,6.5 c 0,0.414 0.294,0.75 0.656,0.75 0.362,0 0.656,-0.336 0.656,-0.75 l 0,-6.5 0,0 z"
             id="path362"
             style="fill:#292c2c" />
          <path
             d="m 256.49,402.928 c 0,-0.414 -0.294,-0.75 -0.657,-0.75 -0.362,0 -0.656,0.336 -0.656,0.75 l 0,6.5 c 0,0.414 0.294,0.75 0.656,0.75 0.363,0 0.657,-0.336 0.657,-0.75 l 0,-6.5 0,0 z"
             id="path364"
             style="fill:#292c2c" />
          <path
             d="m 259.299,402.928 c 0,-0.414 -0.294,-0.75 -0.656,-0.75 -0.362,0 -0.656,0.336 -0.656,0.75 l 0,6.5 c 0,0.414 0.294,0.75 0.656,0.75 0.362,0 0.656,-0.336 0.656,-0.75 l 0,-6.5 0,0 z"
             id="path366"
             style="fill:#292c2c" />
          <path
             d="m 262.109,402.928 c 0,-0.414 -0.294,-0.75 -0.656,-0.75 -0.363,0 -0.657,0.336 -0.657,0.75 l 0,6.5 c 0,0.414 0.294,0.75 0.657,0.75 0.362,0 0.656,-0.336 0.656,-0.75 l 0,-6.5 0,0 z"
             id="path368"
             style="fill:#292c2c" />
          <path
             d="m 264.918,402.928 c 0,-0.414 -0.293,-0.75 -0.656,-0.75 -0.362,0 -0.656,0.336 -0.656,0.75 l 0,6.5 c 0,0.414 0.294,0.75 0.656,0.75 0.363,0 0.656,-0.336 0.656,-0.75 l 0,-6.5 0,0 z"
             id="path370"
             style="fill:#292c2c" />
          <path
             d="m 267.728,402.928 c 0,-0.414 -0.294,-0.75 -0.656,-0.75 -0.363,0 -0.656,0.336 -0.656,0.75 l 0,6.5 c 0,0.414 0.293,0.75 0.656,0.75 0.362,0 0.656,-0.336 0.656,-0.75 l 0,-6.5 0,0 z"
             id="path372"
             style="fill:#292c2c" />
          <path
             d="m 270.538,402.928 c 0,-0.414 -0.294,-0.75 -0.657,-0.75 -0.362,0 -0.656,0.336 -0.656,0.75 l 0,6.5 c 0,0.414 0.294,0.75 0.656,0.75 0.363,0 0.657,-0.336 0.657,-0.75 l 0,-6.5 0,0 z"
             id="path374"
             style="fill:#292c2c" />
          <path
             d="m 273.347,402.928 c 0,-0.414 -0.294,-0.75 -0.656,-0.75 -0.362,0 -0.656,0.336 -0.656,0.75 l 0,6.5 c 0,0.414 0.294,0.75 0.656,0.75 0.362,0 0.656,-0.336 0.656,-0.75 l 0,-6.5 0,0 z"
             id="path376"
             style="fill:#292c2c" />
          <path
             d="m 276.157,402.928 c 0,-0.414 -0.294,-0.75 -0.657,-0.75 -0.362,0 -0.656,0.336 -0.656,0.75 l 0,6.5 c 0,0.414 0.294,0.75 0.656,0.75 0.363,0 0.657,-0.336 0.657,-0.75 l 0,-6.5 0,0 z"
             id="path378"
             style="fill:#292c2c" />
          <path
             d="m 342.203,402.928 c 0,-0.414 -0.293,-0.75 -0.656,-0.75 -0.361,0 -0.656,0.336 -0.656,0.75 l 0,6.5 c 0,0.414 0.295,0.75 0.656,0.75 0.363,0 0.656,-0.336 0.656,-0.75 l 0,-6.5 0,0 z"
             id="path380"
             style="fill:#292c2c" />
          <path
             d="m 345.014,402.928 c 0,-0.414 -0.295,-0.75 -0.657,-0.75 -0.363,0 -0.656,0.336 -0.656,0.75 l 0,6.5 c 0,0.414 0.293,0.75 0.656,0.75 0.362,0 0.657,-0.336 0.657,-0.75 l 0,-6.5 0,0 z"
             id="path382"
             style="fill:#292c2c" />
          <path
             d="m 347.822,402.928 c 0,-0.414 -0.293,-0.75 -0.656,-0.75 -0.361,0 -0.656,0.336 -0.656,0.75 l 0,6.5 c 0,0.414 0.295,0.75 0.656,0.75 0.363,0 0.656,-0.336 0.656,-0.75 l 0,-6.5 0,0 z"
             id="path384"
             style="fill:#292c2c" />
          <path
             d="m 350.633,402.928 c 0,-0.414 -0.295,-0.75 -0.656,-0.75 -0.364,0 -0.657,0.336 -0.657,0.75 l 0,6.5 c 0,0.414 0.293,0.75 0.657,0.75 0.361,0 0.656,-0.336 0.656,-0.75 l 0,-6.5 0,0 z"
             id="path386"
             style="fill:#292c2c" />
          <path
             d="m 353.441,402.928 c 0,-0.414 -0.293,-0.75 -0.656,-0.75 -0.361,0 -0.656,0.336 -0.656,0.75 l 0,6.5 c 0,0.414 0.295,0.75 0.656,0.75 0.363,0 0.656,-0.336 0.656,-0.75 l 0,-6.5 0,0 z"
             id="path388"
             style="fill:#292c2c" />
          <path
             d="m 356.252,402.928 c 0,-0.414 -0.295,-0.75 -0.656,-0.75 -0.364,0 -0.657,0.336 -0.657,0.75 l 0,6.5 c 0,0.414 0.293,0.75 0.657,0.75 0.361,0 0.656,-0.336 0.656,-0.75 l 0,-6.5 0,0 z"
             id="path390"
             style="fill:#292c2c" />
          <path
             d="m 359.061,402.928 c 0,-0.414 -0.293,-0.75 -0.657,-0.75 -0.361,0 -0.656,0.336 -0.656,0.75 l 0,6.5 c 0,0.414 0.295,0.75 0.656,0.75 0.364,0 0.657,-0.336 0.657,-0.75 l 0,-6.5 0,0 z"
             id="path392"
             style="fill:#292c2c" />
          <path
             d="m 361.871,402.928 c 0,-0.414 -0.295,-0.75 -0.656,-0.75 -0.363,0 -0.656,0.336 -0.656,0.75 l 0,6.5 c 0,0.414 0.293,0.75 0.656,0.75 0.361,0 0.656,-0.336 0.656,-0.75 l 0,-6.5 0,0 z"
             id="path394"
             style="fill:#292c2c" />
          <path
             d="m 364.68,402.928 c 0,-0.414 -0.293,-0.75 -0.657,-0.75 -0.361,0 -0.656,0.336 -0.656,0.75 l 0,6.5 c 0,0.414 0.295,0.75 0.656,0.75 0.364,0 0.657,-0.336 0.657,-0.75 l 0,-6.5 0,0 z"
             id="path396"
             style="fill:#292c2c" />
          <path
             d="m 367.49,402.928 c 0,-0.414 -0.295,-0.75 -0.656,-0.75 -0.363,0 -0.656,0.336 -0.656,0.75 l 0,6.5 c 0,0.414 0.293,0.75 0.656,0.75 0.361,0 0.656,-0.336 0.656,-0.75 l 0,-6.5 0,0 z"
             id="path398"
             style="fill:#292c2c" />
          <path
             d="m 211.167,408.011 c 0,-0.552 -0.448,-1 -1,-1 -0.553,0 -1,0.448 -1,1 0,0.552 0.447,1 1,1 0.552,0 1,-0.448 1,-1 l 0,0 z"
             id="path400"
             style="fill:#4cb3ff" />
          <path
             d="m 210.917,408.011 c 0,-0.413 -0.337,-0.75 -0.75,-0.75 -0.414,0 -0.75,0.337 -0.75,0.75 0,0.414 0.336,0.75 0.75,0.75 0.413,0 0.75,-0.336 0.75,-0.75 l 0,0 m -0.75,1.25 c -0.69,0 -1.25,-0.56 -1.25,-1.25 0,-0.689 0.56,-1.25 1.25,-1.25 0.689,0 1.25,0.561 1.25,1.25 0,0.69 -0.561,1.25 -1.25,1.25 l 0,0 z"
             id="path402"
             style="fill:#7e7e7e" />
          <path
             d="m 205.166,408.345 c 0,-0.553 -0.448,-1 -1,-1 -0.552,0 -1,0.447 -1,1 0,0.552 0.448,1 1,1 0.552,0 1,-0.448 1,-1 l 0,0 z"
             id="path404"
             style="fill:#78fa00" />
          <path
             d="m 204.916,408.345 c 0,-0.414 -0.336,-0.75 -0.75,-0.75 -0.414,0 -0.75,0.336 -0.75,0.75 0,0.413 0.336,0.75 0.75,0.75 0.414,0 0.75,-0.337 0.75,-0.75 l 0,0 m -0.75,1.25 c -0.689,0 -1.25,-0.561 -1.25,-1.25 0,-0.69 0.561,-1.25 1.25,-1.25 0.689,0 1.25,0.56 1.25,1.25 0,0.689 -0.561,1.25 -1.25,1.25 l 0,0 z"
             id="path406"
             style="fill:#7e7e7e" />
          <path
             d="m 144.562,395.345 c 0,-0.553 -0.448,-1 -1,-1 -0.552,0 -1,0.447 -1,1 0,0.552 0.448,1 1,1 0.552,0 1,-0.448 1,-1 l 0,0 z"
             id="path408"
             style="fill:#78fa00" />
          <path
             d="m 144.312,395.345 c 0,-0.413 -0.336,-0.75 -0.75,-0.75 -0.414,0 -0.75,0.337 -0.75,0.75 0,0.413 0.336,0.75 0.75,0.75 0.414,0 0.75,-0.337 0.75,-0.75 l 0,0 m -0.75,1.25 c -0.689,0 -1.25,-0.561 -1.25,-1.25 0,-0.69 0.561,-1.25 1.25,-1.25 0.689,0 1.25,0.56 1.25,1.25 0,0.689 -0.561,1.25 -1.25,1.25 l 0,0 z"
             id="path410"
             style="fill:#7e7e7e" />
          <path
             d="m 205.166,404.012 c 0,-0.553 -0.448,-1 -1,-1 -0.552,0 -1,0.447 -1,1 0,0.552 0.448,1 1,1 0.552,0 1,-0.448 1,-1 l 0,0 z"
             id="path412"
             style="fill:#78fa00" />
          <path
             d="m 204.916,404.012 c 0,-0.414 -0.336,-0.75 -0.75,-0.75 -0.414,0 -0.75,0.336 -0.75,0.75 0,0.413 0.336,0.75 0.75,0.75 0.414,0 0.75,-0.337 0.75,-0.75 l 0,0 m -0.75,1.25 c -0.689,0 -1.25,-0.561 -1.25,-1.25 0,-0.69 0.561,-1.25 1.25,-1.25 0.689,0 1.25,0.56 1.25,1.25 0,0.689 -0.561,1.25 -1.25,1.25 l 0,0 z"
             id="path414"
             style="fill:#7e7e7e" />
          <path
             d="m 213.958,408.011 c 0,-0.552 -0.448,-1 -1,-1 -0.552,0 -1,0.448 -1,1 0,0.552 0.448,1 1,1 0.552,0 1,-0.448 1,-1 l 0,0 z"
             id="path416"
             style="fill:#4cb3ff" />
          <path
             d="m 213.708,408.011 c 0,-0.413 -0.336,-0.75 -0.75,-0.75 -0.414,0 -0.75,0.337 -0.75,0.75 0,0.414 0.336,0.75 0.75,0.75 0.414,0 0.75,-0.336 0.75,-0.75 l 0,0 m -0.75,1.25 c -0.689,0 -1.25,-0.56 -1.25,-1.25 0,-0.689 0.561,-1.25 1.25,-1.25 0.689,0 1.25,0.561 1.25,1.25 0,0.69 -0.561,1.25 -1.25,1.25 l 0,0 z"
             id="path418"
             style="fill:#7e7e7e" />
          <path
             d="m 216.75,408.011 c 0,-0.552 -0.448,-1 -1,-1 -0.552,0 -1,0.448 -1,1 0,0.552 0.448,1 1,1 0.552,0 1,-0.448 1,-1 l 0,0 z"
             id="path420"
             style="fill:#4cb3ff" />
          <path
             d="m 216.5,408.011 c 0,-0.413 -0.337,-0.75 -0.75,-0.75 -0.414,0 -0.75,0.337 -0.75,0.75 0,0.414 0.336,0.75 0.75,0.75 0.413,0 0.75,-0.336 0.75,-0.75 l 0,0 m -0.75,1.25 c -0.69,0 -1.25,-0.56 -1.25,-1.25 0,-0.689 0.56,-1.25 1.25,-1.25 0.689,0 1.25,0.561 1.25,1.25 0,0.69 -0.561,1.25 -1.25,1.25 l 0,0 z"
             id="path422"
             style="fill:#7e7e7e" />
          <path
             d="m 219.542,408.011 c 0,-0.552 -0.448,-1 -1,-1 -0.553,0 -1,0.448 -1,1 0,0.552 0.447,1 1,1 0.552,0 1,-0.448 1,-1 l 0,0 z"
             id="path424"
             style="fill:#4cb3ff" />
          <path
             d="m 219.292,408.011 c 0,-0.413 -0.337,-0.75 -0.75,-0.75 -0.414,0 -0.75,0.337 -0.75,0.75 0,0.414 0.336,0.75 0.75,0.75 0.413,0 0.75,-0.336 0.75,-0.75 l 0,0 m -0.75,1.25 c -0.69,0 -1.25,-0.56 -1.25,-1.25 0,-0.689 0.56,-1.25 1.25,-1.25 0.689,0 1.25,0.561 1.25,1.25 0,0.69 -0.561,1.25 -1.25,1.25 l 0,0 z"
             id="path426"
             style="fill:#7e7e7e" />
          <path
             d="m 222.333,408.011 c 0,-0.552 -0.448,-1 -1,-1 -0.552,0 -1,0.448 -1,1 0,0.552 0.448,1 1,1 0.552,0 1,-0.448 1,-1 l 0,0 z"
             id="path428"
             style="fill:#292c2c" />
          <path
             d="m 222.083,408.011 c 0,-0.413 -0.336,-0.75 -0.75,-0.75 -0.414,0 -0.75,0.337 -0.75,0.75 0,0.414 0.336,0.75 0.75,0.75 0.414,0 0.75,-0.336 0.75,-0.75 l 0,0 m -0.75,1.25 c -0.689,0 -1.25,-0.56 -1.25,-1.25 0,-0.689 0.561,-1.25 1.25,-1.25 0.689,0 1.25,0.561 1.25,1.25 0,0.69 -0.561,1.25 -1.25,1.25 l 0,0 z"
             id="path430"
             style="fill:#7e7e7e" />
          <path
             d="m 225.125,408.011 c 0,-0.552 -0.448,-1 -1,-1 -0.553,0 -1,0.448 -1,1 0,0.552 0.447,1 1,1 0.552,0 1,-0.448 1,-1 l 0,0 z"
             id="path432"
             style="fill:#292c2c" />
          <path
             d="m 224.875,408.011 c 0,-0.413 -0.337,-0.75 -0.75,-0.75 -0.414,0 -0.75,0.337 -0.75,0.75 0,0.414 0.336,0.75 0.75,0.75 0.413,0 0.75,-0.336 0.75,-0.75 l 0,0 m -0.75,1.25 c -0.69,0 -1.25,-0.56 -1.25,-1.25 0,-0.689 0.56,-1.25 1.25,-1.25 0.689,0 1.25,0.561 1.25,1.25 0,0.69 -0.561,1.25 -1.25,1.25 l 0,0 z"
             id="path434"
             style="fill:#7e7e7e" />
          <path
             d="m 227.917,408.011 c 0,-0.552 -0.449,-1 -1,-1 -0.553,0 -1,0.448 -1,1 0,0.552 0.447,1 1,1 0.551,0 1,-0.448 1,-1 l 0,0 z"
             id="path436"
             style="fill:#292c2c" />
          <path
             d="m 227.667,408.011 c 0,-0.413 -0.337,-0.75 -0.75,-0.75 -0.414,0 -0.75,0.337 -0.75,0.75 0,0.414 0.336,0.75 0.75,0.75 0.413,0 0.75,-0.336 0.75,-0.75 l 0,0 m -0.75,1.25 c -0.69,0 -1.25,-0.56 -1.25,-1.25 0,-0.689 0.56,-1.25 1.25,-1.25 0.689,0 1.25,0.561 1.25,1.25 0,0.69 -0.561,1.25 -1.25,1.25 l 0,0 z"
             id="path438"
             style="fill:#7e7e7e" />
          <path
             d="m 230.708,408.011 c 0,-0.552 -0.448,-1 -1,-1 -0.552,0 -1,0.448 -1,1 0,0.552 0.448,1 1,1 0.552,0 1,-0.448 1,-1 l 0,0 z"
             id="path440"
             style="fill:#292c2c" />
          <path
             d="m 230.458,408.011 c 0,-0.413 -0.336,-0.75 -0.75,-0.75 -0.414,0 -0.75,0.337 -0.75,0.75 0,0.414 0.336,0.75 0.75,0.75 0.414,0 0.75,-0.336 0.75,-0.75 l 0,0 m -0.75,1.25 c -0.689,0 -1.25,-0.56 -1.25,-1.25 0,-0.689 0.561,-1.25 1.25,-1.25 0.689,0 1.25,0.561 1.25,1.25 0,0.69 -0.561,1.25 -1.25,1.25 l 0,0 z"
             id="path442"
             style="fill:#7e7e7e" />
          <path
             d="m 233.5,408.011 c 0,-0.552 -0.448,-1 -1,-1 -0.553,0 -1,0.448 -1,1 0,0.552 0.447,1 1,1 0.552,0 1,-0.448 1,-1 l 0,0 z"
             id="path444"
             style="fill:#292c2c" />
          <path
             d="m 233.25,408.011 c 0,-0.413 -0.337,-0.75 -0.75,-0.75 -0.414,0 -0.75,0.337 -0.75,0.75 0,0.414 0.336,0.75 0.75,0.75 0.413,0 0.75,-0.336 0.75,-0.75 l 0,0 m -0.75,1.25 c -0.69,0 -1.25,-0.56 -1.25,-1.25 0,-0.689 0.56,-1.25 1.25,-1.25 0.689,0 1.25,0.561 1.25,1.25 0,0.69 -0.561,1.25 -1.25,1.25 l 0,0 z"
             id="path446"
             style="fill:#7e7e7e" />
          <path
             d="m 211.167,404.344 c 0,-0.552 -0.448,-1 -1,-1 -0.553,0 -1,0.448 -1,1 0,0.552 0.447,1 1,1 0.552,0 1,-0.448 1,-1 l 0,0 z"
             id="path448"
             style="fill:#4cb3ff" />
          <path
             d="m 210.917,404.344 c 0,-0.413 -0.337,-0.75 -0.75,-0.75 -0.414,0 -0.75,0.337 -0.75,0.75 0,0.414 0.336,0.75 0.75,0.75 0.413,0 0.75,-0.336 0.75,-0.75 l 0,0 m -0.75,1.25 c -0.69,0 -1.25,-0.56 -1.25,-1.25 0,-0.689 0.56,-1.25 1.25,-1.25 0.689,0 1.25,0.561 1.25,1.25 0,0.69 -0.561,1.25 -1.25,1.25 l 0,0 z"
             id="path450"
             style="fill:#7e7e7e" />
          <path
             d="m 213.958,404.344 c 0,-0.552 -0.448,-1 -1,-1 -0.552,0 -1,0.448 -1,1 0,0.552 0.448,1 1,1 0.552,0 1,-0.448 1,-1 l 0,0 z"
             id="path452"
             style="fill:#4cb3ff" />
          <path
             d="m 213.708,404.344 c 0,-0.413 -0.336,-0.75 -0.75,-0.75 -0.414,0 -0.75,0.337 -0.75,0.75 0,0.414 0.336,0.75 0.75,0.75 0.414,0 0.75,-0.336 0.75,-0.75 l 0,0 m -0.75,1.25 c -0.689,0 -1.25,-0.56 -1.25,-1.25 0,-0.689 0.561,-1.25 1.25,-1.25 0.689,0 1.25,0.561 1.25,1.25 0,0.69 -0.561,1.25 -1.25,1.25 l 0,0 z"
             id="path454"
             style="fill:#7e7e7e" />
          <path
             d="m 144.562,386.344 c 0,-0.553 -0.448,-1 -1,-1 -0.552,0 -1,0.447 -1,1 0,0.552 0.448,1 1,1 0.552,0 1,-0.448 1,-1 l 0,0 z"
             id="path456"
             style="fill:#4cb3ff" />
          <path
             d="m 144.312,386.344 c 0,-0.414 -0.336,-0.75 -0.75,-0.75 -0.414,0 -0.75,0.336 -0.75,0.75 0,0.413 0.336,0.75 0.75,0.75 0.414,0 0.75,-0.337 0.75,-0.75 l 0,0 m -0.75,1.25 c -0.689,0 -1.25,-0.561 -1.25,-1.25 0,-0.69 0.561,-1.25 1.25,-1.25 0.689,0 1.25,0.56 1.25,1.25 0,0.689 -0.561,1.25 -1.25,1.25 l 0,0 z"
             id="path458"
             style="fill:#7e7e7e" />
          <path
             d="m 228.896,395.345 c 0,-0.553 -0.448,-1 -1,-1 -0.553,0 -1,0.447 -1,1 0,0.552 0.447,1 1,1 0.552,0 1,-0.448 1,-1 l 0,0 z"
             id="path460"
             style="fill:#78fa00" />
          <path
             d="m 228.646,395.345 c 0,-0.413 -0.337,-0.75 -0.75,-0.75 -0.414,0 -0.75,0.337 -0.75,0.75 0,0.413 0.336,0.75 0.75,0.75 0.413,0 0.75,-0.337 0.75,-0.75 l 0,0 m -0.75,1.25 c -0.69,0 -1.25,-0.561 -1.25,-1.25 0,-0.69 0.56,-1.25 1.25,-1.25 0.689,0 1.25,0.56 1.25,1.25 0,0.689 -0.561,1.25 -1.25,1.25 l 0,0 z"
             id="path462"
             style="fill:#7e7e7e" />
          <path
             d="m 228.896,386.344 c 0,-0.553 -0.448,-1 -1,-1 -0.553,0 -1,0.447 -1,1 0,0.552 0.447,1 1,1 0.552,0 1,-0.448 1,-1 l 0,0 z"
             id="path464"
             style="fill:#4cb3ff" />
          <path
             d="m 228.646,386.344 c 0,-0.414 -0.337,-0.75 -0.75,-0.75 -0.414,0 -0.75,0.336 -0.75,0.75 0,0.413 0.336,0.75 0.75,0.75 0.413,0 0.75,-0.337 0.75,-0.75 l 0,0 m -0.75,1.25 c -0.69,0 -1.25,-0.561 -1.25,-1.25 0,-0.69 0.56,-1.25 1.25,-1.25 0.689,0 1.25,0.56 1.25,1.25 0,0.689 -0.561,1.25 -1.25,1.25 l 0,0 z"
             id="path466"
             style="fill:#7e7e7e" />
          <path
             d="m 312.896,395.345 c 0,-0.553 -0.448,-1 -1,-1 -0.552,0 -1,0.447 -1,1 0,0.552 0.448,1 1,1 0.552,0 1,-0.448 1,-1 l 0,0 z"
             id="path468"
             style="fill:#78fa00" />
          <path
             d="m 312.646,395.345 c 0,-0.413 -0.336,-0.75 -0.75,-0.75 -0.414,0 -0.75,0.337 -0.75,0.75 0,0.413 0.336,0.75 0.75,0.75 0.414,0 0.75,-0.337 0.75,-0.75 l 0,0 m -0.75,1.25 c -0.689,0 -1.25,-0.561 -1.25,-1.25 0,-0.69 0.561,-1.25 1.25,-1.25 0.69,0 1.25,0.56 1.25,1.25 0,0.689 -0.56,1.25 -1.25,1.25 l 0,0 z"
             id="path470"
             style="fill:#7e7e7e" />
          <path
             d="m 312.896,386.344 c 0,-0.553 -0.448,-1 -1,-1 -0.552,0 -1,0.447 -1,1 0,0.552 0.448,1 1,1 0.552,0 1,-0.448 1,-1 l 0,0 z"
             id="path472"
             style="fill:#4cb3ff" />
          <path
             d="m 312.646,386.344 c 0,-0.414 -0.336,-0.75 -0.75,-0.75 -0.414,0 -0.75,0.336 -0.75,0.75 0,0.413 0.336,0.75 0.75,0.75 0.414,0 0.75,-0.337 0.75,-0.75 l 0,0 m -0.75,1.25 c -0.689,0 -1.25,-0.561 -1.25,-1.25 0,-0.69 0.561,-1.25 1.25,-1.25 0.69,0 1.25,0.56 1.25,1.25 0,0.689 -0.56,1.25 -1.25,1.25 l 0,0 z"
             id="path474"
             style="fill:#7e7e7e" />
          <path
             d="m 396.563,395.345 c 0,-0.553 -0.448,-1 -1,-1 -0.552,0 -1,0.447 -1,1 0,0.552 0.448,1 1,1 0.552,0 1,-0.448 1,-1 l 0,0 z"
             id="path476"
             style="fill:#78fa00" />
          <path
             d="m 396.313,395.345 c 0,-0.413 -0.336,-0.75 -0.75,-0.75 -0.413,0 -0.75,0.337 -0.75,0.75 0,0.413 0.337,0.75 0.75,0.75 0.414,0 0.75,-0.337 0.75,-0.75 l 0,0 m -0.75,1.25 c -0.689,0 -1.25,-0.561 -1.25,-1.25 0,-0.69 0.561,-1.25 1.25,-1.25 0.69,0 1.25,0.56 1.25,1.25 0,0.689 -0.56,1.25 -1.25,1.25 l 0,0 z"
             id="path478"
             style="fill:#7e7e7e" />
          <path
             d="m 396.563,386.344 c 0,-0.553 -0.448,-1 -1,-1 -0.552,0 -1,0.447 -1,1 0,0.552 0.448,1 1,1 0.552,0 1,-0.448 1,-1 l 0,0 z"
             id="path480"
             style="fill:#4cb3ff" />
          <path
             d="m 396.313,386.344 c 0,-0.414 -0.336,-0.75 -0.75,-0.75 -0.413,0 -0.75,0.336 -0.75,0.75 0,0.413 0.337,0.75 0.75,0.75 0.414,0 0.75,-0.337 0.75,-0.75 l 0,0 m -0.75,1.25 c -0.689,0 -1.25,-0.561 -1.25,-1.25 0,-0.69 0.561,-1.25 1.25,-1.25 0.69,0 1.25,0.56 1.25,1.25 0,0.689 -0.56,1.25 -1.25,1.25 l 0,0 z"
             id="path482"
             style="fill:#7e7e7e" />
          <path
             d="m 216.75,404.344 c 0,-0.552 -0.448,-1 -1,-1 -0.552,0 -1,0.448 -1,1 0,0.552 0.448,1 1,1 0.552,0 1,-0.448 1,-1 l 0,0 z"
             id="path484"
             style="fill:#4cb3ff" />
          <path
             d="m 216.5,404.344 c 0,-0.413 -0.337,-0.75 -0.75,-0.75 -0.414,0 -0.75,0.337 -0.75,0.75 0,0.414 0.336,0.75 0.75,0.75 0.413,0 0.75,-0.336 0.75,-0.75 l 0,0 m -0.75,1.25 c -0.69,0 -1.25,-0.56 -1.25,-1.25 0,-0.689 0.56,-1.25 1.25,-1.25 0.689,0 1.25,0.561 1.25,1.25 0,0.69 -0.561,1.25 -1.25,1.25 l 0,0 z"
             id="path486"
             style="fill:#7e7e7e" />
          <path
             d="m 219.542,404.344 c 0,-0.552 -0.448,-1 -1,-1 -0.553,0 -1,0.448 -1,1 0,0.552 0.447,1 1,1 0.552,0 1,-0.448 1,-1 l 0,0 z"
             id="path488"
             style="fill:#4cb3ff" />
          <path
             d="m 219.292,404.344 c 0,-0.413 -0.337,-0.75 -0.75,-0.75 -0.414,0 -0.75,0.337 -0.75,0.75 0,0.414 0.336,0.75 0.75,0.75 0.413,0 0.75,-0.336 0.75,-0.75 l 0,0 m -0.75,1.25 c -0.69,0 -1.25,-0.56 -1.25,-1.25 0,-0.689 0.56,-1.25 1.25,-1.25 0.689,0 1.25,0.561 1.25,1.25 0,0.69 -0.561,1.25 -1.25,1.25 l 0,0 z"
             id="path490"
             style="fill:#7e7e7e" />
          <path
             d="m 222.333,404.344 c 0,-0.552 -0.448,-1 -1,-1 -0.552,0 -1,0.448 -1,1 0,0.552 0.448,1 1,1 0.552,0 1,-0.448 1,-1 l 0,0 z"
             id="path492"
             style="fill:#4cb3ff" />
          <path
             d="m 222.083,404.344 c 0,-0.413 -0.336,-0.75 -0.75,-0.75 -0.414,0 -0.75,0.337 -0.75,0.75 0,0.414 0.336,0.75 0.75,0.75 0.414,0 0.75,-0.336 0.75,-0.75 l 0,0 m -0.75,1.25 c -0.689,0 -1.25,-0.56 -1.25,-1.25 0,-0.689 0.561,-1.25 1.25,-1.25 0.689,0 1.25,0.561 1.25,1.25 0,0.69 -0.561,1.25 -1.25,1.25 l 0,0 z"
             id="path494"
             style="fill:#7e7e7e" />
          <path
             d="m 225.125,404.344 c 0,-0.552 -0.448,-1 -1,-1 -0.553,0 -1,0.448 -1,1 0,0.552 0.447,1 1,1 0.552,0 1,-0.448 1,-1 l 0,0 z"
             id="path496"
             style="fill:#4cb3ff" />
          <path
             d="m 224.875,404.344 c 0,-0.413 -0.337,-0.75 -0.75,-0.75 -0.414,0 -0.75,0.337 -0.75,0.75 0,0.414 0.336,0.75 0.75,0.75 0.413,0 0.75,-0.336 0.75,-0.75 l 0,0 m -0.75,1.25 c -0.69,0 -1.25,-0.56 -1.25,-1.25 0,-0.689 0.56,-1.25 1.25,-1.25 0.689,0 1.25,0.561 1.25,1.25 0,0.69 -0.561,1.25 -1.25,1.25 l 0,0 z"
             id="path498"
             style="fill:#7e7e7e" />
          <path
             d="m 227.917,404.344 c 0,-0.552 -0.449,-1 -1,-1 -0.553,0 -1,0.448 -1,1 0,0.552 0.447,1 1,1 0.551,0 1,-0.448 1,-1 l 0,0 z"
             id="path500"
             style="fill:#4cb3ff" />
          <path
             d="m 197.833,406.345 c 0,-2.667 -2.428,-3 -2.428,-3 l -8.905,0 0,5.667 8.905,0 c 0,0 2.428,-10e-4 2.428,-2.667 l 0,0 z"
             id="path512"
             style="fill:#2c302f" />
          <path
             d="m 197.583,406.345 c 0,-2.41 -2.123,-2.74 -2.213,-2.753 l -0.045,-0.006 -0.04,-0.022 0.12,0.031 -8.905,0 0.25,-0.25 0,5.667 -0.25,-0.25 8.905,0 c 0.088,-10e-4 2.178,-0.04 2.178,-2.417 l 0,0 m -2.178,2.917 -8.905,0 -0.25,0 0,-0.25 0,-5.667 0,-0.25 0.25,0 8.905,0 0.017,0 0.017,0.002 c 0.026,0.004 2.644,0.396 2.644,3.248 0,2.883 -2.651,2.917 -2.678,2.917 l 0,0 z"
             id="path514"
             style="fill:#a9a9a9" />
          <path
             d="m 195.833,405.862 -8,0 0,0.632 8,0 0,-0.632 0,0 z"
             id="path516"
             style="fill:#a8b5b0" />
          <path
             d="m 195.833,406.112 -8,0 0.25,-0.25 0,0.632 -0.25,-0.25 8,0 -0.25,0.25 0,-0.632 0.25,0.25 0,0 m 0,0.632 -8,0 -0.25,0 0,-0.25 0,-0.632 0,-0.25 0.25,0 8,0 0.25,0 0,0.25 0,0.632 0,0.25 -0.25,0 0,0 z"
             id="path518"
             style="fill:#a9a9a9" />
        </g>
        <path
           d="m 178.5,406.178 c 0,-2.209 -1.791,-4 -4,-4 -2.209,0 -4,1.791 -4,4 0,2.209 1.791,4 4,4 2.209,0 4,-1.791 4,-4 l 0,0 z"
           id="path526"
           style="fill:url(#radialGradient5263);stroke:#797979;stroke-width:0.49410304" />
        <use
           transform="translate(-12,0)"
           id="use5292"
           x="0"
           y="0"
           width="705"
           height="452.5"
           xlink:href="#path526" />
        <use
           transform="translate(-24,0)"
           id="use5296"
           x="0"
           y="0"
           width="705"
           height="452.5"
           xlink:href="#path526" />
        <use
           transform="translate(247.333,0)"
           id="use5302"
           x="0"
           y="0"
           width="705"
           height="452.5"
           xlink:href="#path526" />
        <path
           d="m 133.932,395.093 c 0,-2.864 -2.322,-5.186 -5.186,-5.186 -2.864,0 -5.185,2.322 -5.185,5.186 0,2.863 2.321,5.185 5.185,5.185 2.864,0 5.186,-2.322 5.186,-5.185 l 0,0 z"
           id="path614"
           style="fill:url(#radialGradient5882);stroke:#3c3c3c;stroke-width:0.49410304" />
        <use
           transform="translate(353.667,0)"
           id="use5886"
           x="0"
           y="0"
           width="705"
           height="452.5"
           xlink:href="#path614" />
      </g>
    </g>
    <use
       transform="translate(438.9645,84.997)"
       id="use20654"
       x="0"
       y="0"
       width="705"
       height="452.5"
       xlink:href="#g246" />
    <use
       transform="translate(438.9645,-0.627)"
       id="use20656"
       x="0"
       y="0"
       width="705"
       height="452.5"
       xlink:href="#g246" />
    <g
       id="g654">
      <g
         transform="matrix(1,0,0,-1,61.4212,49.003)"
         id="g660" />
      <path
         d="m 34.0606,334.333 0,-8.115 1.5213,0 0,3.044 1.0766,0 0,1.521 -1.0766,0 0,2.029 1.6923,0 0,1.521 -3.2136,0 z"
         id="path686"
         style="fill:#ffffff" />
      <path
         d="m 34.0606,344.709 0,-8.115 1.5213,0 0,3.044 1.0766,0 0,1.521 -1.0766,0 0,2.029 1.6923,0 0,1.521 -3.2136,0 z"
         id="path688"
         style="fill:#ffffff" />
    </g>
    <g
       transform="matrix(1,0,0,-1,499.61,134.223)"
       id="g1104" />
    <g
       id="g1518">
      <g
         transform="matrix(1,0,0,-1,499.508,49.08)"
         id="g1524" />
      <g
         transform="matrix(1,0,0,-1,170.97,335.385)"
         id="g1530" />
      <g
         transform="matrix(1,0,0,-1,170.97,335.385)"
         id="g1542" />
      <g
         transform="matrix(1,0,0,-1,170.97,335.385)"
         id="g1554" />
    </g>
    <g
       id="g1572">
      <path
         d="m 301.28125,212.46875 c -0.12719,0 -0.25615,0.0612 -0.34375,0.15625 -0.0523,0.0568 -0.0969,0.10886 -0.125,0.1875 -0.025,0.0701 -0.0312,0.13813 -0.0312,0.21875 l 0,7.5 0,0.15625 0.0312,0.0625 c 0.0335,0.094 0.0891,0.1572 0.15625,0.21875 0.054,0.0495 0.1193,0.0743 0.1875,0.0937 0.009,0.003 0.0222,-0.002 0.0312,0 0.40576,0.42178 0.77282,0.80807 1.4375,1.21875 l 5.90625,0 0,2.28125 0,0.0625 c 0.0212,0.013 0.042,0.0188 0.0625,0.0312 0.012,0.0122 0.0157,0.021 0.0312,0.0312 0.31375,0.18849 0.57096,0.30153 1.0625,0.46875 l 2.8125,0 0,1.125 -3.65625,0 c -0.16872,0 -0.3125,0.077 -0.3125,0.1875 l 0,2.59375 c 0,0.0399 0.0317,0.0624 0.0625,0.0937 l -7.21875,0 c -0.40312,0 -0.71875,0.34688 -0.71875,0.75 l 0,31.125 c 0,0.40312 0.31563,0.71875 0.71875,0.71875 l 42.03125,0 c 0.40312,0 0.75,-0.31563 0.75,-0.71875 l 0,-31.125 c 0,-0.40312 -0.34688,-0.75 -0.75,-0.75 l -9.0625,0 c 0.0308,-0.0313 0.0625,-0.0538 0.0625,-0.0937 l 0,-2.59375 c 0,-0.11053 -0.14392,-0.1875 -0.3125,-0.1875 l -2.9375,0 0,-1.125 2.09375,0 c 0.51043,-0.18441 0.82056,-0.32703 1.15625,-0.5 l 0,-0.15625 0,-2.21875 6,0 c 0.72522,-0.47591 1.18502,-0.85501 1.65625,-1.28125 0.061,-0.0552 0.1875,-0.15625 0.1875,-0.15625 l 0,-0.125 c 0.0171,-0.059 0,-0.12168 0,-0.1875 l 0,-7.5 c 0,-0.3225 -0.19785,-0.5625 -0.46875,-0.5625 l -40.5,0 z"
         id="path9854"
         style="fill:#828282;filter:url(#filter4189)" />
      <g
         transform="matrix(0.146589,0,0,0.14659,277.302,181.178)"
         id="g1586">
        <path
           d="m 163.58151,227.1011 c -1.84802,0 -3.41089,1.63722 -3.41089,3.83724 l 0,51.1631 0,1.0659 0.21284,0.42568 c 0.41272,1.15703 1.30098,1.83382 2.34499,2.13179 2.80737,2.92285 5.42783,5.47698 10.01951,8.31401 l 257.73591,0 c 4.94731,-3.24654 8.08397,-5.83266 11.2986,-8.74037 0.41613,-0.37656 1.27909,-1.06589 1.27909,-1.06589 l 0,-53.29457 c 0,-2.20001 -1.34969,-3.83723 -3.19772,-3.83723 z"
           id="path1604"
           style="fill:url(#linearGradient9821);stroke:#4c3b06;stroke-width:0.75039482" />
        <path
           d="m 213.138,309.17525 0,0.79375 c 2.49,1.523 4.152,2.439 7.85,3.697 l 160.638,0 c 3.482,-1.258 5.56,-2.174 7.85,-3.354 l 0,-1.13675 z"
           id="path1626"
           style="fill:url(#linearGradient9823);stroke:#4c3b06;stroke-width:0.75039482" />
        <path
           d="m 389.476,292.039 c 0,-0.754 -0.944,-1.372 -2.094,-1.372 l -172.15,0 c -1.151,0 -2.094,0.618 -2.094,1.372 l 0,17.508 c 0,0.756 0.943,1.373 2.094,1.373 l 172.15,0 c 1.15,0 2.094,-0.617 2.094,-1.373 l 0,-17.508 0,0 z"
           id="path1648"
           style="fill:url(#linearGradient9825);stroke:#4c3b06;stroke-width:0.75039482" />
        <path
           d="m 389.476,322.705 c 0,-0.754 -0.944,-1.372 -2.094,-1.372 l -172.15,0 c -1.151,0 -2.094,0.618 -2.094,1.372 l 0,17.508 c 0,0.756 0.943,1.373 2.094,1.373 l 172.15,0 c 1.15,0 2.094,-0.617 2.094,-1.373 l 0,-17.508 0,0 z"
           id="path1692"
           style="fill:url(#linearGradient9827);stroke:#4c3b06;stroke-width:0.75039482" />
        <path
           d="m 378.3,232 53.5,53.5 8.952,0.309 c -0.31,0.113 -0.631,0.191 -0.97,0.191 l -270.982,0 54,-54 155.5,0 0,0 z"
           id="path1714"
           style="fill:url(#linearGradient9829);stroke:#4c3b06;stroke-width:0.75039482" />
        <path
           d="m 160.139,282 0,-51 c 0,-2.2 1.511,-4 3.359,-4 l 276.284,0 c 1.848,0 3.36,1.8 3.36,4 l 0,51 c 0,1.796 -1.014,3.308 -2.39,3.809 L 431.8,285.5 378.3,232 l -155.5,0 -54,54 -5.302,0 c -1.848,0 -3.359,-1.8 -3.359,-4 l 0,0 z"
           id="path1758"
           style="fill:url(#linearGradient9831);stroke:#4c3b06;stroke-width:0.37519741" />
        <path
           d="m 367.467,312.334 -127.334,0 0,8.999 127.334,0 0,-8.999 0,0 z"
           id="path1776"
           style="fill:url(#linearGradient9833);stroke:#4c3b06;stroke-width:0.75039482" />
        <path
           d="m 456,346 c 0,-2.75 -2.25,-5 -5,-5 l -286.721,0 c -2.75,0 -5,2.25 -5,5 l 0,212.334 c 0,2.75 2.25,5 5,5 l 286.721,0 c 2.75,0 5,-2.25 5,-5 L 456,346 l 0,0 z"
           id="path1798"
           style="fill:url(#linearGradient9835);stroke:#4c3b06;stroke-width:0.75039482" />
        <path
           d="m 430.306,454 c 0,-59 -3,-91.5 -3,-91.5 0,0 -31.846,-3 -116.846,-3 -85,0 -122.487,3 -122.487,3 0,0 -3,14.5 -3,90.5 0,76 3,88.833 3,88.833 0,0 38.487,3 117.487,3 79,0 121.846,-3 121.846,-3 0,0 3,-28.832 3,-87.833 l 0,0 z"
           id="path1820"
           style="fill:url(#radialGradient9837);stroke:#000000;stroke-width:1.97831357" />
      </g>
    </g>
    <use
       transform="translate(81.443,0)"
       id="use12276"
       x="0"
       y="0"
       width="705"
       height="452.5"
       xlink:href="#g1572" />
    <use
       transform="translate(-83.167,-86.425)"
       id="use12280"
       x="0"
       y="0"
       width="705"
       height="452.5"
       xlink:href="#g1572" />
    <use
       transform="translate(0,-173.3485)"
       id="use12282"
       x="0"
       y="0"
       width="705"
       height="452.5"
       xlink:href="#g1572" />
    <use
       transform="translate(-261.99205,0.55125)"
       id="use12284"
       x="0"
       y="0"
       width="705"
       height="452.5"
       xlink:href="#g1572" />
    <g
       transform="matrix(1,0,0,-1,61.8187,275.071)"
       id="g2636">
      <text
         transform="translate(-18.9994,4)"
         id="text2638">
        <tspan
           x="0 10.066 13.86 17.653999 25.969999"
           y="0"
           id="tspan2640"
           style="font-size:14px;font-weight:bold;font-family:Liberation Sans">Alice</tspan>
      </text>
    </g>
    <g
       id="g5450">
      <use
         transform="translate(-82.76355,-173.71375)"
         id="use12286"
         x="0"
         y="0"
         width="705"
         height="452.5"
         xlink:href="#g1572" />
      <path
         d="m 230.343,71.3 6.001,0 0,-6.001 5.998,0 0,6.001 6.001,0 0,5.998 -6.001,0 0,6.001 -5.998,0 0,-6.001 -6.001,0 0,-5.998 z"
         id="path3202"
         style="fill:url(#radialGradient21958);stroke:#000000;stroke-width:0.5;stroke-linecap:round;stroke-linejoin:round;stroke-miterlimit:10" />
    </g>
    <use
       transform="translate(82.36,87.654)"
       id="use20402"
       x="0"
       y="0"
       width="705"
       height="452.5"
       xlink:href="#g5450" />
    <use
       transform="translate(166.443,87.654)"
       id="use20404"
       x="0"
       y="0"
       width="705"
       height="452.5"
       xlink:href="#g5450" />
    <use
       transform="translate(0,174.265)"
       id="use20406"
       x="0"
       y="0"
       width="705"
       height="452.5"
       xlink:href="#g5450" />
    <use
       transform="translate(165.443,-1.346)"
       id="use20408"
       x="0"
       y="0"
       width="705"
       height="452.5"
       xlink:href="#g5450" />
    <use
       transform="translate(199.88,263.995)"
       id="use20410"
       x="0"
       y="0"
       width="705"
       height="452.5"
       xlink:href="#path3202" />
    <g
       id="g4420">
      <use
         transform="translate(199.88,263.9955)"
         id="use5454"
         x="0"
         y="0"
         width="705"
         height="452.5"
         xlink:href="#path3202" />
      <g
         transform="matrix(1,0,0,-1,-5.5,360.5)"
         id="g4430">
        <path
           d="m 428.759,58.3859 19.874,0.1305"
           id="path4432"
           style="fill:none;stroke:#00a900;stroke-width:2;stroke-miterlimit:10" />
      </g>
      <g
         transform="matrix(1,0,0,-1,-5.5,360.5)"
         id="g4436">
        <path
           d="m 454.873,58.5573 -6.224,-2.3809 -0.031,4.6799 6.255,-2.299 z"
           id="path4438"
           style="fill:#00a900;stroke:#00a900;stroke-width:2;stroke-miterlimit:10" />
      </g>
      <g
         transform="matrix(1,0,0,-1,484.825,336.885)"
         id="g4440">
        <text
           transform="translate(-27.2952,2.5)"
           id="text4442">
          <tspan
             x="0 6.875 13.519 18.337 21.087 27.731001 34.375 41.25"
             y="0"
             id="tspan4444"
             style="font-size:11px;font-weight:bold;fill-opacity:0.7;font-family:Liberation Sans">Tor node</tspan>
        </text>
      </g>
      <g
         transform="matrix(1,0,0,-1,503.783,320.114)"
         id="g4446">
        <text
           transform="translate(-45.3137,2.5)"
           id="text4448">
          <tspan
             x="0 6.6440001 13.288 19.822001 26.466 33 37.818001 43.779999 50.654999 54.549 61.083 67.958 70.708 73.689003 76.669998 83.314003"
             y="0"
             id="tspan4450"
             style="font-size:11px;font-weight:bold;fill-opacity:0.7;font-family:Liberation Sans">unencrypted link</tspan>
        </text>
      </g>
      <g
         transform="matrix(1,0,0,-1,496.837,303.114)"
         id="g4452">
        <text
           transform="translate(-38.6697,2.5)"
           id="text4454">
          <tspan
             x="0 6.5339999 13.178 19.712 24.530001 30.492001 37.367001 41.261002 47.794998 54.669998 57.419998 60.401001 63.382 70.026001"
             y="0"
             id="tspan4456"
             style="font-size:11px;font-weight:bold;fill-opacity:0.7;font-family:Liberation Sans">encrypted link</tspan>
        </text>
      </g>
      <g
         transform="matrix(1,0,0,-1,-5.5,360.5)"
         id="g4458">
        <path
           d="m 428.759,41.3859 19.875,0.1305"
           id="path4460"
           style="fill:none;stroke:#e42200;stroke-width:2;stroke-miterlimit:10;stroke-dasharray:2, 6" />
      </g>
      <g
         transform="matrix(1,0,0,-1,-5.5,360.5)"
         id="g4464">
        <path
           d="m 454.874,41.5573 -6.224,-2.3809 -0.031,4.6799 6.255,-2.299 z"
           id="path4466"
           style="fill:#e42200;stroke:#e42200;stroke-width:2;stroke-miterlimit:10" />
      </g>
      <g
         transform="matrix(1,0,0,-1,-5.5,360.5)"
         id="g4558" />
      <g
         transform="matrix(1,0,0,-1,-5.5,360.5)"
         id="g4564" />
      <g
         transform="matrix(1,0,0,-1,-5.5,360.5)"
         id="g4570" />
    </g>
  </g>
  <path
     d="m 122.0075,152.9475 c 12.35375,-0.23125 43.255,8.7275 69.31625,-1.2975 26.06125,-10.025 29.2825,-49.73825 70.945,-58.558749 41.6625,-8.820496 145.65,-6.755376 179.055,5.630625 33.405,12.386124 24.39875,50.489374 21.39625,68.693124 -3.0025,18.20375 -29.73625,30.24125 -39.415,40.54125 -9.67875,10.3 -12.445,14.1775 -8.02875,9.1475"
     id="path4654"
     style="fill:none;stroke:#00a900;stroke-width:2.5;stroke-linecap:round;stroke-linejoin:round;stroke-miterlimit:10" />
  <path
     d="m 407.36,226.1225 11.2975,-6.05 -6.76375,-5.9375 -4.53375,11.9875 z"
     id="path4660"
     style="fill:#00a900;stroke:#00a900;stroke-width:2.5;stroke-miterlimit:10" />
  <path
     d="m 110.00925,153.1725 12.082,4.275 -0.16875,-8.99875 -11.91325,4.72375 z"
     id="path4666"
     style="fill:#00a900;stroke:#00a900;stroke-width:2.5;stroke-miterlimit:10" />
  <path
     d="m 448.995,261.525 14.3025,0"
     id="path4670"
     style="fill:none;stroke:#00a900;stroke-width:2.5;stroke-linecap:round;stroke-linejoin:round;stroke-miterlimit:10" />
  <path
     d="m 475.2975,261.525 -12,-4.5 0,9 12,-4.5 z"
     id="path4676"
     style="fill:#00a900;stroke:#00a900;stroke-width:2.5;stroke-miterlimit:10" />
  <path
     d="m 436.995,261.52375 12,4.50125 10e-4,-9 -12.00125,4.49875 z"
     id="path4682"
     style="fill:#00a900;stroke:#00a900;stroke-width:2.5;stroke-miterlimit:10" />
  <path
     d="m 470.23914,294.4076 c 1.94875,-1.17375 -21.25354,19.7724 -43.13849,21.65615 -21.885,1.88375 -16.85474,2.71314 -42.00224,3.08814 -25.1475,0.375 -51.96591,-6.22564 -64.27091,-0.83564 -12.305,5.39 -12.4375,13.305 -7.64375,8.17625"
     id="path4686"
     style="fill:none;stroke:#00a900;stroke-width:2.5;stroke-linecap:round;stroke-linejoin:round;stroke-miterlimit:10"
     inkscape:connector-curvature="0"
     sodipodi:nodetypes="csssc" />
  <path
     d="m 304.98875,335.25875 11.4825,-5.6925 -6.575,-6.14624 -4.9075,11.83875 z"
     id="path4692"
     style="fill:#00a900;stroke:#00a900;stroke-width:2.5;stroke-miterlimit:10" />
  <path
     d="m 343.0075,380.885 c 13.53375,9.7425 32.6425,38.78125 66.78375,48.07375 34.14125,9.29251 99.54,15.045 125,-1.73625 25.46,-16.78125 21.41375,-62.79375 27.77875,-98.95875 6.365,-36.165 2.315,-98.09125 10.41625,-118.055 8.10125,-19.96375 29.40875,-9.8375 38.19375,-1.73625 8.785,8.10125 9.68375,33.56875 10.055,34.8575"
     id="path4702"
     style="fill:none;stroke:#e42200;stroke-width:2.5;stroke-linecap:round;stroke-linejoin:round;stroke-miterlimit:10;stroke-dasharray:2.5, 7.5" />
  <path
     d="m 624.56125,254.86 0.9975,-12.77625 -8.6475,2.49375 7.65,10.2825 z"
     id="path4708"
     style="fill:#e42200;stroke:#e42200;stroke-width:2.5;stroke-miterlimit:10" />
  <path
     d="m 333.26875,373.87375 7.11,10.66249 5.2575,-7.30374 -12.3675,-3.35875 z"
     id="path4714"
     style="fill:#e42200;stroke:#e42200;stroke-width:2.5;stroke-miterlimit:10" />
  <path
     inkscape:connector-curvature="0"
     d="m 470.23914,294.4076 -12.60125,2.33625 4.6425,7.71 z"
     id="path4698"
     style="fill:#00a900;stroke:#00a900;stroke-width:2.5;stroke-miterlimit:10" />
  <text
     style="font-size:15px;stroke-width:1.25"
     y="309.16809"
     x="487.81116"
     id="text1526-7">
    <tspan
       id="tspan1528-5"
       style="font-weight:bold;font-size:17.5px;font-family:'Liberation Sans';stroke-width:1.25">Dave</tspan>
  </text>
  <text
     style="font-size:15px;stroke-width:1.25"
     y="421.56479"
     x="273.91718"
     id="text1526-2">
    <tspan
       id="tspan1528-9"
       style="font-weight:bold;font-size:17.5px;font-family:'Liberation Sans';stroke-width:1.25">Frank</tspan>
    <tspan
       style="font-weight:bold;font-size:17.5px;font-family:'Liberation Sans';stroke-width:1.25"
       id="tspan4263" />
  </text>
  <text
     style="font-size:15px;stroke-width:1.25"
     y="308.34167"
     x="372.75583"
     id="text1526-3">
    <tspan
       id="tspan1528-56"
       style="font-weight:bold;font-size:17.5px;font-family:'Liberation Sans';stroke-width:1.25">Charlie</tspan>
  </text>
  <text
     style="font-size:15px;stroke-width:1.25"
     y="291.49231"
     x="598.61768"
     id="text1526-7-5">
    <tspan
       id="tspan1528-5-3"
       style="font-weight:bold;font-size:17.5px;font-family:'Liberation Sans';stroke-width:1.25">Bob</tspan>
    <tspan
       style="font-weight:bold;font-size:17.5px;font-family:'Liberation Sans';stroke-width:1.25"
       id="tspan418" />
  </text>
</svg>
