<?xml version="1.0" encoding="UTF-8" standalone="no"?>
<!-- Created with Inkscape (http://www.inkscape.org/) -->

<svg
   xmlns:dc="http://purl.org/dc/elements/1.1/"
   xmlns:cc="http://creativecommons.org/ns#"
   xmlns:rdf="http://www.w3.org/1999/02/22-rdf-syntax-ns#"
   xmlns:svg="http://www.w3.org/2000/svg"
   xmlns="http://www.w3.org/2000/svg"
   xmlns:sodipodi="http://sodipodi.sourceforge.net/DTD/sodipodi-0.dtd"
   xmlns:inkscape="http://www.inkscape.org/namespaces/inkscape"
   width="274.50378mm"
   height="178.35298mm"
   viewBox="0 0 274.50379 178.35298"
   version="1.1"
   id="svg8"
   inkscape:version="0.92.2 (5c3e80d, 2017-08-06)"
   sodipodi:docname="setup-unified.svg">
  <defs
     id="defs2">
    <marker
       inkscape:isstock="true"
       style="overflow:visible"
       id="marker6150"
       refX="0"
       refY="0"
       orient="auto"
       inkscape:stockid="Arrow1Lend">
      <path
         transform="matrix(-0.8,0,0,-0.8,-10,0)"
         style="fill:#000000;fill-opacity:1;fill-rule:evenodd;stroke:#000000;stroke-width:1.00000003pt;stroke-opacity:1"
         d="M 0,0 5,-5 -12.5,0 5,5 Z"
         id="path6148"
         inkscape:connector-curvature="0" />
    </marker>
    <marker
       inkscape:stockid="Arrow1Lstart"
       orient="auto"
       refY="0"
       refX="0"
       id="marker6062"
       style="overflow:visible"
       inkscape:isstock="true">
      <path
         id="path6060"
         d="M 0,0 5,-5 -12.5,0 5,5 Z"
         style="fill:#000000;fill-opacity:1;fill-rule:evenodd;stroke:#000000;stroke-width:1.00000003pt;stroke-opacity:1"
         transform="matrix(0.8,0,0,0.8,10,0)"
         inkscape:connector-curvature="0" />
    </marker>
    <marker
       inkscape:stockid="Arrow1Lend"
       orient="auto"
       refY="0"
       refX="0"
       id="marker5942"
       style="overflow:visible"
       inkscape:isstock="true"
       inkscape:collect="always">
      <path
         id="path5940"
         d="M 0,0 5,-5 -12.5,0 5,5 Z"
         style="fill:#000000;fill-opacity:1;fill-rule:evenodd;stroke:#000000;stroke-width:1.00000003pt;stroke-opacity:1"
         transform="matrix(-0.8,0,0,-0.8,-10,0)"
         inkscape:connector-curvature="0" />
    </marker>
    <marker
       inkscape:isstock="true"
       style="overflow:visible"
       id="marker5866"
       refX="0"
       refY="0"
       orient="auto"
       inkscape:stockid="Arrow1Lstart"
       inkscape:collect="always">
      <path
         transform="matrix(0.8,0,0,0.8,10,0)"
         style="fill:#000000;fill-opacity:1;fill-rule:evenodd;stroke:#000000;stroke-width:1.00000003pt;stroke-opacity:1"
         d="M 0,0 5,-5 -12.5,0 5,5 Z"
         id="path5864"
         inkscape:connector-curvature="0" />
    </marker>
    <marker
       inkscape:isstock="true"
       style="overflow:visible"
       id="marker5734"
       refX="0"
       refY="0"
       orient="auto"
       inkscape:stockid="Arrow1Lend"
       inkscape:collect="always">
      <path
         transform="matrix(-0.8,0,0,-0.8,-10,0)"
         style="fill:#000000;fill-opacity:1;fill-rule:evenodd;stroke:#000000;stroke-width:1.00000003pt;stroke-opacity:1"
         d="M 0,0 5,-5 -12.5,0 5,5 Z"
         id="path5732"
         inkscape:connector-curvature="0" />
    </marker>
    <marker
       inkscape:stockid="Arrow1Lstart"
       orient="auto"
       refY="0"
       refX="0"
       id="marker5670"
       style="overflow:visible"
       inkscape:isstock="true"
       inkscape:collect="always">
      <path
         id="path5668"
         d="M 0,0 5,-5 -12.5,0 5,5 Z"
         style="fill:#000000;fill-opacity:1;fill-rule:evenodd;stroke:#000000;stroke-width:1.00000003pt;stroke-opacity:1"
         transform="matrix(0.8,0,0,0.8,10,0)"
         inkscape:connector-curvature="0" />
    </marker>
    <marker
       inkscape:stockid="Arrow1Lend"
       orient="auto"
       refY="0"
       refX="0"
       id="marker4049"
       style="overflow:visible"
       inkscape:isstock="true"
       inkscape:collect="always">
      <path
         id="path4047"
         d="M 0,0 5,-5 -12.5,0 5,5 Z"
         style="fill:#7d4698;fill-opacity:1;fill-rule:evenodd;stroke:#7d4698;stroke-width:1.00000003pt;stroke-opacity:1"
         transform="matrix(-0.8,0,0,-0.8,-10,0)"
         inkscape:connector-curvature="0" />
    </marker>
    <marker
       inkscape:isstock="true"
       style="overflow:visible"
       id="marker3667"
       refX="0"
       refY="0"
       orient="auto"
       inkscape:stockid="Arrow1Lend">
      <path
         transform="matrix(-0.8,0,0,-0.8,-10,0)"
         style="fill:#000000;fill-opacity:1;fill-rule:evenodd;stroke:#000000;stroke-width:1.00000003pt;stroke-opacity:1"
         d="M 0,0 5,-5 -12.5,0 5,5 Z"
         id="path3665"
         inkscape:connector-curvature="0" />
    </marker>
    <marker
       inkscape:isstock="true"
       style="overflow:visible"
       id="marker3621"
       refX="0"
       refY="0"
       orient="auto"
       inkscape:stockid="Arrow1Lstart"
       inkscape:collect="always">
      <path
         transform="matrix(0.8,0,0,0.8,10,0)"
         style="fill:#7d4698;fill-opacity:1;fill-rule:evenodd;stroke:#7d4698;stroke-width:1.00000003pt;stroke-opacity:1"
         d="M 0,0 5,-5 -12.5,0 5,5 Z"
         id="path3619"
         inkscape:connector-curvature="0" />
    </marker>
    <marker
       inkscape:stockid="Arrow1Lstart"
       orient="auto"
       refY="0"
       refX="0"
       id="Arrow1Lstart"
       style="overflow:visible"
       inkscape:isstock="true"
       inkscape:collect="always">
      <path
         id="path3225"
         d="M 0,0 5,-5 -12.5,0 5,5 Z"
         style="fill:#7d4698;fill-opacity:1;fill-rule:evenodd;stroke:#7d4698;stroke-width:1.00000003pt;stroke-opacity:1"
         transform="matrix(0.8,0,0,0.8,10,0)"
         inkscape:connector-curvature="0" />
    </marker>
    <marker
       inkscape:stockid="Arrow1Lend"
       orient="auto"
       refY="0"
       refX="0"
       id="Arrow1Lend"
       style="overflow:visible"
       inkscape:isstock="true"
       inkscape:collect="always">
      <path
         id="path3228"
         d="M 0,0 5,-5 -12.5,0 5,5 Z"
         style="fill:#7d4698;fill-opacity:1;fill-rule:evenodd;stroke:#7d4698;stroke-width:1.00000003pt;stroke-opacity:1"
         transform="matrix(-0.8,0,0,-0.8,-10,0)"
         inkscape:connector-curvature="0" />
    </marker>
    <linearGradient
       id="linearGradient2245">
      <stop
         offset="0"
         stop-color="#dde1d9"
         id="stop2247" />
      <stop
         offset="1"
         stop-color="#cacdc6"
         id="stop2249" />
    </linearGradient>
    <radialGradient
       r="8.7663002"
       gradientTransform="scale(1.9258,0.51926)"
       cx="12.576"
       cy="67.501999"
       gradientUnits="userSpaceOnUse"
       id="radialGradient2460">
      <stop
         offset="0"
         id="stop2456" />
      <stop
         offset="1"
         stop-opacity="0"
         id="stop2458" />
    </radialGradient>
    <linearGradient
       x1="8.1134005"
       x2="8.1134005"
       gradientTransform="scale(2.3099,0.43293)"
       y1="88.509003"
       gradientUnits="userSpaceOnUse"
       y2="100.2"
       id="linearGradient2758">
      <stop
         offset="0"
         stop-color="#9d9d9d"
         id="stop2754" />
      <stop
         offset="1"
         stop-color="#b9b9b9"
         id="stop2756" />
    </linearGradient>
    <linearGradient
       x1="10.391"
       x2="32.536999"
       gradientTransform="scale(1.1044,0.90547)"
       y1="5.3818002"
       gradientUnits="userSpaceOnUse"
       y2="31.246"
       id="linearGradient2979">
      <stop
         offset="0"
         stop-color="#8f8f8f"
         id="stop2255" />
      <stop
         offset="1"
         stop-color="#494949"
         id="stop2257" />
    </linearGradient>
    <radialGradient
       inkscape:collect="always"
       r="29.986"
       gradientTransform="matrix(1.25,0,0,1.2501,-105.8,247.98)"
       cx="546.31"
       cy="307.28"
       gradientUnits="userSpaceOnUse"
       id="radialGradient5692">
      <stop
         offset="0"
         style="stop-color:#ccdff4"
         id="stop5688" />
      <stop
         offset="1"
         style="stop-color:#6898d2"
         id="stop5690" />
    </radialGradient>
    <radialGradient
       inkscape:collect="always"
       r="29.986"
       gradientTransform="matrix(1.25,0,0,1.2501,-105.8,247.98)"
       cx="546.31"
       cy="307.28"
       gradientUnits="userSpaceOnUse"
       id="radialGradient5692-6">
      <stop
         offset="0"
         style="stop-color:#ccdff4"
         id="stop5688-2" />
      <stop
         offset="1"
         style="stop-color:#6898d2"
         id="stop5690-6" />
    </radialGradient>
    <radialGradient
       inkscape:collect="always"
       r="29.986"
       gradientTransform="matrix(1.25,0,0,1.2501,-105.8,247.98)"
       cx="546.31"
       cy="307.28"
       gradientUnits="userSpaceOnUse"
       id="radialGradient5692-4">
      <stop
         offset="0"
         style="stop-color:#ccdff4"
         id="stop5688-7" />
      <stop
         offset="1"
         style="stop-color:#6898d2"
         id="stop5690-8" />
    </radialGradient>
  </defs>
  <sodipodi:namedview
     id="base"
     pagecolor="#ffffff"
     bordercolor="#666666"
     borderopacity="1.0"
     inkscape:pageopacity="0.0"
     inkscape:pageshadow="2"
     inkscape:zoom="0.35355339"
     inkscape:cx="801.89495"
     inkscape:cy="70.291358"
     inkscape:document-units="mm"
     inkscape:current-layer="layer1"
     showgrid="false"
     inkscape:object-nodes="false"
     inkscape:window-width="1600"
     inkscape:window-height="851"
     inkscape:window-x="0"
     inkscape:window-y="25"
     inkscape:window-maximized="1"
     inkscape:snap-bbox="false"
     inkscape:bbox-paths="true"
     inkscape:object-paths="true" />
  <metadata
     id="metadata5">
    <rdf:RDF>
      <cc:Work
         rdf:about="">
        <dc:format>image/svg+xml</dc:format>
        <dc:type
           rdf:resource="http://purl.org/dc/dcmitype/StillImage" />
        <dc:title></dc:title>
      </cc:Work>
    </rdf:RDF>
  </metadata>
  <g
     inkscape:groupmode="layer"
     id="layer2"
     inkscape:label="bottom"
     transform="translate(77.668334,-57.011008)" />
  <g
     inkscape:label="Layer 1"
     inkscape:groupmode="layer"
     id="layer1"
     transform="translate(77.668334,-57.011008)">
    <g
       id="g3219"
       transform="translate(23.94735,41.907862)">
      <g
         id="layer1-6"
         inkscape:label="Calque 1"
         transform="matrix(0.26458333,0,0,0.26458333,-112.70771,58.214046)">
        <g
           id="layer1-5"
           inkscape:label="Calque 1"
           transform="translate(-267.9831,-307.71002)">
          <path
             id="path588"
             d="m 406.64,558.61 c 0,6.9043 -14.551,12.5 -32.5,12.5 -17.949,0 -32.5,-5.5957 -32.5,-12.5 0,-6.9043 14.551,-12.5 32.5,-12.5 17.949,0 32.5,5.5957 32.5,12.5"
             style="fill:#bdbdbd;fill-rule:evenodd;stroke:#7d7d7d;stroke-width:2.5;stroke-miterlimit:10"
             inkscape:connector-curvature="0" />
          <path
             id="path590"
             d="m 359.14,531.11 h 30 v 27.5 h -30 z"
             style="fill:#bdbdbd;fill-rule:evenodd;stroke:#7d7d7d;stroke-width:2.5;stroke-miterlimit:10"
             inkscape:connector-curvature="0" />
          <path
             id="path592"
             d="m 321.64,463.61 h 102.5 l 2.5,87.5 h -107.5 z"
             style="fill:#bdbdbd;fill-rule:evenodd;stroke:#7d7d7d;stroke-width:2.5;stroke-miterlimit:10"
             inkscape:connector-curvature="0" />
          <path
             id="path596"
             d="m 321.64,571.11 h 102.5 l 10,30 h -122.5 z"
             style="fill:#bdbdbd;fill-rule:evenodd;stroke:#7d7d7d;stroke-width:2.5;stroke-miterlimit:10"
             inkscape:connector-curvature="0" />
          <path
             id="path598"
             d="m 326.64,576.11 h 66.25 l 6.25,20 h -12.5 l -2.5,-5 h -50 l -2.5,5 h -12.5 z"
             style="fill:#9c9c9c;fill-rule:evenodd;stroke:#7d7d7d;stroke-width:1.25;stroke-miterlimit:10"
             inkscape:connector-curvature="0" />
          <path
             id="path600"
             d="m 400.39,576.11 h 20 l 6.25,20 h -20 z"
             style="fill:#9c9c9c;fill-rule:evenodd;stroke:#7d7d7d;stroke-width:1.25;stroke-miterlimit:10"
             inkscape:connector-curvature="0" />
          <path
             id="path602"
             d="m 336.64,593.61 h 45 l 1.001,2.5 h -47.002 z"
             style="fill:#9c9c9c;fill-rule:evenodd;stroke:#7d7d7d;stroke-width:1.25;stroke-miterlimit:10"
             inkscape:connector-curvature="0" />
          <path
             id="path604"
             d="m 426.64,581.11 c 8.3008,0 15,-5 10,-15 -5,-10 -40,5 -45,-15"
             style="fill:none;stroke:#7d7d7d;stroke-width:2.5;stroke-miterlimit:10"
             inkscape:connector-curvature="0" />
          <path
             id="path606"
             d="m 416.64,547.36 c 0,1.665 -2.5,1.665 -2.5,0 0,-1.665 2.5,-1.665 2.5,0"
             style="fill:#7d7d7d;fill-rule:evenodd;stroke:#7d7d7d;stroke-width:1.25;stroke-miterlimit:10"
             inkscape:connector-curvature="0" />
          <path
             id="path608"
             d="m 421.64,547.36 c 0,1.665 -2.5,1.665 -2.5,0 0,-1.665 2.5,-1.665 2.5,0"
             style="fill:#7d7d7d;fill-rule:evenodd;stroke:#7d7d7d;stroke-width:1.25;stroke-miterlimit:10"
             inkscape:connector-curvature="0" />
          <path
             id="path610"
             d="m 411.64,547.36 c 0,1.665 -2.5,1.665 -2.5,0 0,-1.665 2.5,-1.665 2.5,0"
             style="fill:#7d7d7d;fill-rule:evenodd;stroke:#7d7d7d;stroke-width:1.25;stroke-miterlimit:10"
             inkscape:connector-curvature="0" />
        </g>
      </g>
      <g
         transform="matrix(0.2143125,0,0,0.2143125,-95.107667,100.51485)"
         id="g940">
        <g
           id="g903">
          <circle
             style="fill:#036eb1"
             cx="47.900002"
             cy="47.900002"
             r="47.900002"
             id="circle901" />
        </g>
        <g
           id="g938">
          <g
             id="g932">
            <g
               id="layer3_19_"
               transform="translate(-92,-63.999774)">
              <g
                 id="layer5_19_">
                <g
                   id="path2554_33_">
                  <path
                     style="fill:#68b044"
                     inkscape:connector-curvature="0"
                     d="m 144.1,79.3 -2.3,9.2 c 3.3,-6.5 8.5,-11.4 14.5,-15.7 -4.4,5.1 -8.4,10.2 -10.8,15.2 4.1,-5.8 9.6,-9 15.9,-11.1 -8.3,7.4 -14.9,15.3 -19.9,23.3 l -4,-1.7 c 0.6,-6.3 3,-12.9 6.6,-19.2 z"
                     id="path905" />
                </g>
                <g
                   id="path2534_12_">
                  <path
                     style="fill:#f5f8de"
                     inkscape:connector-curvature="0"
                     d="m 133.4,96.8 7.6,3.1 c 0,1.9 -0.2,7.8 1,9.6 12.6,16.3 10.5,48.8 -2.6,49.7 -19.9,0 -27.5,-13.5 -27.5,-25.9 0,-11.3 13.6,-18.8 21.7,-25.5 2.2,-1.8 1.8,-5.8 -0.2,-11 z"
                     id="path908" />
                </g>
                <g
                   id="path2536_20_">
                  <path
                     style="fill:#7e4798"
                     inkscape:connector-curvature="0"
                     d="m 141,99.9 2.7,1.4 c -0.3,1.8 0.1,5.8 1.9,6.8 8,5 15.5,10.4 18.5,15.8 10.5,19 -7.4,36.7 -22.9,35 8.4,-6.2 10.9,-19 7.7,-33 -1.3,-5.5 -3.3,-10.4 -6.8,-16 -1.5,-2.8 -1,-6.2 -1.1,-10 z"
                     id="path911" />
                </g>
              </g>
              <g
                 id="layer4_19_">
                <g
                   id="path2540_20_">
                  <path
                     style="fill:#010101"
                     inkscape:connector-curvature="0"
                     d="m 138,108.9 c -0.6,3 -1.2,8.3 -3.8,10.3 -1.1,0.8 -2.2,1.5 -3.3,2.3 -4.6,3.2 -9.3,6.1 -11.4,13.7 -0.5,1.6 -0.1,3.3 0.3,5 1.2,4.6 4.4,9.6 7,12.6 0,0.1 0.5,0.5 0.5,0.6 2.1,2.5 2.8,3.2 10.8,5 l -0.2,0.9 c -4.8,-1.3 -8.8,-2.4 -11.3,-5.3 0,-0.1 -0.5,-0.5 -0.5,-0.5 -2.7,-3.1 -6,-8.2 -7.2,-13.1 -0.5,-1.9 -0.8,-3.4 -0.3,-5.4 2.2,-7.8 6.9,-10.9 11.8,-14.2 1.1,-0.7 2.4,-1.4 3.4,-2.2 2,-1.5 3.1,-6 4.2,-9.7 z"
                     id="path915" />
                </g>
                <g
                   id="path2542_20_">
                  <path
                     style="fill:#010101"
                     inkscape:connector-curvature="0"
                     d="m 140,121.3 c 0.1,3.3 -0.3,5 0.6,7.4 0.5,1.4 2.3,3.3 2.8,5.2 0.7,2.5 1.5,5.3 1.4,6.9 0,1.9 -0.1,5.5 -1,9.4 -0.6,3.2 -2.1,5.9 -4.6,7.5 -2.5,-0.5 -5.5,-1.4 -7.3,-2.9 -3.4,-3 -6.4,-7.9 -6.8,-12.2 -0.3,-3.5 3,-8.8 7.5,-11.4 3.9,-2.3 4.8,-4.8 5.6,-8.9 -1.2,3.6 -2.2,6.6 -6,8.6 -5.4,2.8 -8.2,7.6 -7.9,12.1 0.4,5.8 2.7,9.7 7.3,12.9 1.9,1.4 5.5,2.8 7.8,3.2 v -0.3 c 1.7,-0.3 3.9,-3.1 5,-6.9 1,-3.4 1.3,-7.8 1.3,-10.5 -0.1,-1.6 -0.8,-5.1 -2.1,-8.2 -0.7,-1.7 -1.8,-3.5 -2.5,-4.7 -0.7,-1.5 -0.7,-4.1 -1.1,-7.2 z"
                     id="path918" />
                </g>
                <g
                   id="path2544_20_">
                  <path
                     style="fill:#010101"
                     inkscape:connector-curvature="0"
                     d="m 139.4,134.5 c 0.1,2.3 1,5.1 1.4,8.1 0.3,2.2 0.2,4.4 0.1,6.3 -0.1,2.2 -0.8,6.2 -1.8,8.2 -1,-0.4 -1.3,-0.9 -2,-1.8 -0.8,-1.1 -1.3,-2.2 -1.8,-3.5 -0.4,-1 -0.8,-2.1 -1,-3.4 -0.3,-1.9 -0.2,-4.9 2,-8 1.7,-2.4 2.1,-2.6 2.6,-5.5 -0.8,2.5 -1.3,2.8 -3.1,4.9 -2,2.3 -2.3,5.7 -2.3,8.5 0,1.2 0.5,2.4 0.9,3.7 0.5,1.3 1,2.6 1.7,3.5 1.1,1.6 2.4,2.5 3.1,2.6 0,0 0,0 0,0 0,0 0,0 0,0 V 158 c 1.2,-1.4 2,-2.8 2.3,-4.2 0.3,-1.7 0.4,-3.3 0.6,-5.3 0.2,-1.7 0.1,-3.9 -0.4,-6.2 -0.7,-2.8 -1.8,-5.8 -2.3,-7.8 z"
                     id="path921" />
                </g>
                <g
                   id="path2550_20_">
                  <path
                     style="fill:#010101"
                     inkscape:connector-curvature="0"
                     d="m 139.8,106.2 c 0.1,3.3 0.3,9.6 1.2,12 0.3,0.8 2.6,4.5 4.3,8.9 1.2,3.1 1.4,5.9 1.6,6.8 0.8,3.7 -0.2,9.8 -1.5,15.7 -0.6,3.2 -2.8,7.1 -5.3,8.6 l -0.5,0.9 c 1.4,-0.1 4.9,-3.5 6.1,-7.7 2.1,-7.2 2.9,-10.5 1.9,-18.5 -0.1,-0.8 -0.5,-3.4 -1.7,-6.2 -1.8,-4.3 -4.4,-8.4 -4.7,-9.3 -0.5,-1.3 -1.3,-7.2 -1.4,-11.2 z"
                     id="path924" />
                </g>
                <g
                   id="path2552_20_">
                  <path
                     style="fill:#010101"
                     inkscape:connector-curvature="0"
                     d="m 141,100.2 c -0.2,3.4 -0.2,6.2 0.4,8.7 0.7,2.8 4.3,6.8 5.8,11.3 2.8,8.7 2.1,20.2 0.1,29.1 -0.8,3.2 -4.4,7.7 -8.1,9.2 l 2.7,0.6 c 1.5,-0.1 5.3,-3.6 6.8,-7.7 2.4,-6.4 2.8,-14 1.9,-21.9 -0.1,-0.8 -1.4,-7.7 -2.6,-10.5 -1.7,-4.3 -4.5,-7.3 -5.5,-10 -0.7,-2 -1,-7.3 -0.6,-8.4 z"
                     id="path927" />
                </g>
              </g>
            </g>
          </g>
          <g
             id="g936">
            <path
               style="fill:#010101"
               inkscape:connector-curvature="0"
               d="M 68.1,53 C 65.3,50.5 61.9,48.4 58.3,46.4 56.7,45.5 51.7,41.6 53.4,36.1 L 40.8,31 40,31.7 c 4.2,7.5 2,11.5 -0.1,12.9 -4.2,2.9 -10.3,6.5 -13.3,9.6 -5.9,6 -7.5,11.7 -7,19.2 0.6,9.6 7.6,17.7 17,20.8 4.1,1.4 7.9,1.5 12.2,1.5 6.8,0 13.8,-1.8 18.9,-6 5.4,-4.5 8.6,-11.3 8.6,-18.3 C 76.2,64.5 73.3,57.8 68.1,53 Z M 66.2,88.3 C 61.6,92.2 53.1,94.8 48.6,94.6 43.6,94.3 38.8,93.5 34.5,91.4 27,87.8 22,79.9 21.7,73.5 21,60.4 27.3,56.6 33.1,51.9 c 3.3,-2.7 7.8,-4 10.4,-8.7 0.5,-1 0.8,-3.3 0.2,-5.7 -0.3,-0.8 -1.5,-3.7 -1.9,-4.4 l 9.4,4.1 c -1.2,4.3 2.4,8.8 5.2,10.4 2.8,1.6 7.4,4.6 10.2,7.1 4.8,4.3 7.4,10.4 7.4,16.9 -0.1,6.3 -2.8,12.5 -7.8,16.7 z"
               id="path934" />
          </g>
        </g>
      </g>
    </g>
    <g
       transform="matrix(0.26458333,0,0,0.26458333,-19.957523,-80.541897)"
       inkscape:label="Calque 1"
       id="layer1-0">
      <path
         inkscape:connector-curvature="0"
         style="fill:#e1e1e1;fill-rule:evenodd;stroke:#7d7d7d;stroke-width:3.75;stroke-miterlimit:10"
         d="m 597.5,536.76 15,-15 h 50 l 15,15 v 120 h -80 z"
         id="path1028" />
      <path
         inkscape:connector-curvature="0"
         style="fill:#bdbdbd;fill-rule:evenodd;stroke:#9c9c9c;stroke-width:1.25;stroke-miterlimit:10"
         d="m 605,539.26 12.5,-12.5 h 40 l 12.5,12.5 z"
         id="path1030" />
      <path
         inkscape:connector-curvature="0"
         style="fill:#bdbdbd;fill-rule:evenodd;stroke:#9c9c9c;stroke-width:1.25;stroke-linejoin:round;stroke-miterlimit:10"
         d="m 606.25,541.76 h 62.5 c 0.6885,0 1.25,0.55663 1.25,1.25 v 107.5 c 0,0.6885 -0.5615,1.25 -1.25,1.25 h -62.5 c -0.69337,0 -1.25,-0.5615 -1.25,-1.25 v -107.5 c 0,-0.69337 0.55663,-1.25 1.25,-1.25"
         id="path1032" />
      <path
         inkscape:connector-curvature="0"
         style="fill:#9c9c9c;fill-rule:evenodd;stroke:#7d7d7d;stroke-width:3.75;stroke-linejoin:round;stroke-miterlimit:10"
         d="m 611.25,549.26 h 52.5 c 0.6885,0 1.25,0.55663 1.25,1.25 v 12.5 c 0,0.68848 -0.5615,1.25 -1.25,1.25 h -52.5 c -0.69337,0 -1.25,-0.56152 -1.25,-1.25 v -12.5 c 0,-0.69337 0.55663,-1.25 1.25,-1.25"
         id="path1034" />
      <path
         inkscape:connector-curvature="0"
         style="fill:#9c9c9c;fill-rule:evenodd;stroke:#7d7d7d;stroke-width:3.75;stroke-linejoin:round;stroke-miterlimit:10"
         d="m 611.25,571.76 h 52.5 c 0.6885,0 1.25,0.55663 1.25,1.25 v 12.5 c 0,0.68848 -0.5615,1.25 -1.25,1.25 h -52.5 c -0.69337,0 -1.25,-0.56152 -1.25,-1.25 v -12.5 c 0,-0.69337 0.55663,-1.25 1.25,-1.25"
         id="path1036" />
      <path
         inkscape:connector-curvature="0"
         style="fill:#9c9c9c;fill-rule:evenodd;stroke:#7d7d7d;stroke-width:3.75;stroke-linejoin:round;stroke-miterlimit:10"
         d="m 633.75,599.26 h 30 c 0.6885,0 1.25,0.56153 1.25,1.25 v 10 c 0,0.68848 -0.5615,1.25 -1.25,1.25 h -30 c -0.6935,0 -1.25,-0.56152 -1.25,-1.25 v -10 c 0,-0.68847 0.5565,-1.25 1.25,-1.25"
         id="path1038" />
      <path
         inkscape:connector-curvature="0"
         style="fill:#c51900;fill-rule:evenodd;stroke:#7d7d7d;stroke-width:2.5;stroke-linejoin:round;stroke-miterlimit:10"
         d="m 625,605.51 c 0,8.335 -12.5,8.335 -12.5,0 0,-8.335 12.5,-8.335 12.5,0"
         id="path1040" />
      <path
         inkscape:connector-curvature="0"
         style="fill:#9c9c9c;fill-rule:evenodd;stroke:#7d7d7d;stroke-width:2.5;stroke-miterlimit:10"
         d="m 622.5,623.07 h 5 v 27.5 h -5 z"
         id="path1042" />
      <path
         inkscape:connector-curvature="0"
         style="fill:#9c9c9c;fill-rule:evenodd;stroke:#7d7d7d;stroke-width:2.5;stroke-miterlimit:10"
         d="m 632.5,623.07 h 5 v 27.5 h -5 z"
         id="path1044" />
      <path
         inkscape:connector-curvature="0"
         style="fill:#9c9c9c;fill-rule:evenodd;stroke:#7d7d7d;stroke-width:2.5;stroke-miterlimit:10"
         d="m 642.5,623.07 h 5 v 27.5 h -5 z"
         id="path1046" />
      <path
         inkscape:connector-curvature="0"
         style="fill:#9c9c9c;fill-rule:evenodd;stroke:#7d7d7d;stroke-width:2.5;stroke-miterlimit:10"
         d="m 652.5,623.07 h 5 v 27.5 h -5 z"
         id="path1048" />
      <path
         inkscape:connector-curvature="0"
         style="fill:#9c9c9c;fill-rule:evenodd;stroke:#7d7d7d;stroke-width:2.5;stroke-miterlimit:10"
         d="m 662.5,623.13 h 5 v 27.5 h -5 z"
         id="path1050" />
      <path
         inkscape:connector-curvature="0"
         style="fill:url(#radialGradient5692);fill-rule:evenodd;stroke:#262626;stroke-width:2.5;stroke-miterlimit:10"
         d="m 617.2,644.49 c 0,20.01 -16.221,36.235 -36.23,36.235 -20.015,0 -36.235,-16.226 -36.235,-36.235 0,-20.01 16.221,-36.235 36.235,-36.235 20.01,0 36.23,16.226 36.23,36.235"
         id="path1052" />
      <path
         inkscape:connector-curvature="0"
         style="fill:#deeeff;fill-rule:evenodd;stroke:#7d7d7d;stroke-width:1.25;stroke-miterlimit:10"
         d="m 561.85,614.67 1.748,-1.2012 2.1777,-1.0644 3.1104,-1.0889 2.8076,-1.0644 3.6816,-0.4883 5.9961,-0.791 7.1142,0.5371 10,3.75 6.25,3.75 7.5,8.75 3.75,10 0.71777,13.242 -1.9531,8.0078 -2.2168,5.3662 -1.0205,0.9375 -0.708,-0.9375 -0.0293,-1.963 0.80077,-2.1828 -0.43945,-2.046 -1.0791,-0.6885 -0.38575,-1.328 -0.60545,-1.2158 -1.0791,-0.245 -0.9375,-0.03 -1.3526,0.71775 -1.8506,2.0165 -2.1289,1.4355 -2.627,-0.0825 -1.4062,-0.74225 -2.1533,-0.0875 -1.0791,-1.1328 -0.13675,-3.0664 -0.41505,-1.4308 -0.66405,-0.88875 v -2.0995 l 0.0585,-1.9042 1.294,-1.2695 v -1.797 l -0.30273,-1.792 0.249,-1.2745 1.4356,-1.9335 0.99608,-0.65925 1.1035,-1.3818 0.83008,-0.80075 1.3526,0.581 2.5146,-0.195 1.0205,-0.664 0.19525,-2.124 1.2988,-0.72275 0.6885,-1.2158 -0.0292,-1.3232 -0.9375,-1.1865 -0.7715,0.71775 -0.58105,0.88375 -0.91307,-0.27825 -0.74708,-1.0205 -0.7422,-0.03 -0.83007,0.8595 -0.61035,0.71775 -0.1905,0.74225 1.0205,1.4648 0.35645,0.4835 0.2245,0.4345 -0.13675,0.165 -0.20025,-0.1025 -0.26855,0.6495 -0.3418,0.2 -0.35158,-0.2 0.21,-0.61025 -0.1855,-0.51275 -0.49805,-0.503 -0.62987,-0.165 -1.0498,-0.03 -0.60548,0.1375 -1.3428,0.786 -0.67383,0.747 0.28808,1.2402 -0.0146,2.0068 -0.46875,0.8545 -1.3525,1.1035 -1.123,-0.24 -0.96192,-1.1378 -0.17575,-1.211 0.72755,-0.8985 0.5371,-0.752 -0.27833,-0.62 -0.7959,-1.6602 -0.97167,-1.1865 -0.68848,0.27825 -0.52247,-0.36125 0.90822,-0.747 0.083,-1.0205 0.49805,-2.2362 0.9668,-1.0498 0.69335,-0.44425 -0.44432,-1.0205 0.21975,-1.1328 0.33202,-0.69325 -1.3281,-1.0988 -1.5723,-0.83 0.55178,3.3398 -1.0205,0.83 -1.0498,0.83 -1.1326,-1.9364 -1.2696,-0.9912 -0.52732,-1.5478 -0.16115,-1.5186 1.958,-2.8711 -1.8506,-0.69337 -0.9375,-1.2695 -1.5478,0.47363 -1.5723,-0.33203 -2.0166,-1.1084 h -1.4355 l -1.3037,-1.0742 -1.9873,0.0244 -1.709,1.1621 -4.4238,0.083 -2.1338,1.6748 -0.89845,0.13182 z"
         id="path1056" />
      <path
         inkscape:connector-curvature="0"
         style="fill:#deeeff;fill-rule:evenodd;stroke:#7d7d7d;stroke-width:1.25;stroke-miterlimit:10"
         d="m 586.54,626.88 0.37598,0.1325 0.6885,0.63975 0.8203,0.1325 1.1816,0.3125 0.4834,1.206 -0.53223,0.5175 -0.52247,0.459 -0.57618,-0.34175 0.0978,0.44425 -0.85447,0.26375 -0.7715,0.46875 0.0488,-1.504 0.625,-0.1325 0.36132,-0.1175 0.3955,0.42975 -0.29297,-0.75675 -0.64453,-0.035 -0.50782,-0.82025 -0.2783,-0.65425 z"
         id="path1058" />
      <path
         inkscape:connector-curvature="0"
         style="fill:#deeeff;fill-rule:evenodd;stroke:#7d7d7d;stroke-width:1.25;stroke-miterlimit:10"
         d="m 577.13,619.17 0.1855,1.0058 0.83007,0.88875 0.3174,1.4015 0.2245,1.8115 -0.61522,2.2265 -0.41993,0.78125 -1.0108,0.34675 -0.59082,0.63475 -0.542,0.65925 -0.65428,0.835 -0.77637,0.01 -0.72265,-0.464 -0.67383,-0.74225 -0.3174,-0.73725 0.1025,-0.88876 0.28808,-0.37599 0.3174,-0.664 -0.18075,-0.82525 -0.77148,-1.7188 -1.128,-0.9765 -1.0986,0.21 -0.63478,-0.1025 -0.7373,-1.162 -0.88867,-0.18 -0.49315,-0.454 -0.27833,-0.86925 2.2656,0.1175 1.9726,-0.30275 2.1045,-0.0575 1.4502,0.165 1.1572,-0.0146 z"
         id="path1060" />
      <path
         inkscape:connector-curvature="0"
         style="fill:#deeeff;fill-rule:evenodd;stroke:#7d7d7d;stroke-width:1.25;stroke-miterlimit:10"
         d="m 580.54,624.95 0.62012,0.0925 1.1426,-0.0146 0.4541,0.52725 0.1075,0.6005 -0.90333,0.332 -0.9082,0.1475 -0.7373,0.53225 -0.46387,0.195 -0.36133,-0.6495 -0.0488,-0.6005 0.39063,-0.376 0.32227,-0.454 z"
         id="path1062" />
      <path
         inkscape:connector-curvature="0"
         style="fill:#deeeff;fill-rule:evenodd;stroke:#7d7d7d;stroke-width:1.25;stroke-miterlimit:10"
         d="m 558.5,616.82 2.749,-0.71275 1.0889,1.1085 0.75682,0.8545 -0.55175,1.1328 -0.9375,1.3672 0.52248,0.913 0.2245,0.96674 -0.64943,1.338 0.86915,0.747 0.66408,0.92776 0.078,0.98625 -0.249,1.1377 -0.24425,0.38575 -2.0752,2.085 0.708,1.9775 0.4004,1.5185 1.6699,-1.0352 0.95215,-1.0205 0.80078,-1.2842 1.1035,1.0742 0.91308,0.76175 1.2305,0.0675 0.80078,0.98149 0.11225,1.5185 0.49317,0.86925 0.21,0.91299 0.76173,1.2403 0.7959,1.162 -0.83985,0.5225 -1.0644,-0.49326 -0.73243,-0.84474 -0.205,-0.625 -1.2598,-0.29775 -1.1426,-0.1125 -0.6787,0.371 0.5664,0.76175 0.86915,-0.03 0.76173,0.36125 0.46875,0.8545 0.039,0.9375 -0.6494,0.42975 -1.2549,-0.1125 h -1.1572 l -0.95702,1.0938 -1.7676,1.4062 -0.81542,1.9335 -1.8506,1.9482 -1.4062,0.9815 -0.11225,3.2324 -0.4834,0.165 -0.46875,-0.26375 -0.34668,-0.77625 -0.15125,-1.7382 -1.7236,-0.175 -0.77148,0.371 -1.1768,-0.332 -1.0205,0.664 -0.5127,1.4745 -0.30273,1.3428 0.71778,1.0498 3.0664,0.3175 -0.20025,1.6552 v 1.709 l 4.0674,3.833 2.0215,0.786 0.71778,-0.55675 1.3965,0.69825 2.1826,-0.16 1.6943,-0.0925 1.5088,0.29775 2.3242,2.583 0.85937,0.34675 2.7636,-0.1425 2.2754,2.6026 1.6748,0.0244 0.97168,1.0938 1.001,0.16 1.2549,-0.95225 2.0898,0.045 1.5771,0.625 0.53712,0.537 0.161,1.582 0.58105,1.1132 -0.83495,1.416 -0.166,1.6505 -0.53222,1.6015 -0.81055,1.1378 -1.7432,0.1425 -0.83985,0.32225 -0.97168,1.4648 -1.4892,1.9042 -2.8809,0.185 -5.2686,-0.625 -1.1133,-0.6835 -0.56152,-1.8995 -2.251,-2.251 -2.7637,-0.69325 -1.5332,-2.627 -1.6504,-0.46375 -0.69825,-1.2352 -0.92773,-0.8105 -0.32715,-1.372 0.41993,-2.3632 0.34667,-1.3478 -2.7978,-2.8662 -5.4004,-5.0342 -0.32225,-1.3232 -1.792,-0.7665 -1.1133,-1.4648 -0.13675,-1.9482 v -2.256 l -0.5371,-1.46 -1.5576,-0.32725 -0.3711,-2.5098 0.56153,-3.3447 1.0889,-1.2745 0.27833,-4.2285 1.582,-2.6026 1.9971,-3.2715 0.1855,-1.0938 2.9736,-3.9502 0.9961,-2.6465 1.1182,-2.207 0.3711,-0.85925 z"
         id="path1064" />
      <path
         inkscape:connector-curvature="0"
         style="fill:#deeeff;fill-rule:evenodd;stroke:#7d7d7d;stroke-width:1.25;stroke-miterlimit:10"
         d="m 556.98,653.02 0.75682,-0.50775 1.333,0.52725 1.0059,1.3525 1.3525,0.34175 0.34668,0.84949 h 0.50295 l 1.4453,0.36626 0.62012,1.0792 -1.836,-0.16 -0.98632,-0.6885 -0.27343,-0.57125 -0.50782,0.254 -1.9922,-0.918 -1.5381,-1.0108 z"
         id="path1066" />
      <path
         inkscape:connector-curvature="0"
         style="fill:#deeeff;fill-rule:evenodd;stroke:#7d7d7d;stroke-width:1.25;stroke-miterlimit:10"
         d="m 568.4,656.29 1.0059,-0.0925 0.91797,0.664 1.582,0.18 1.1474,0.76175 -0.32225,0.80075 -1.377,0.34675 -1.1914,-0.669 -0.68847,0.0675 -0.84473,-0.18 -0.30272,-0.98625 z"
         id="path1068" />
      <path
         inkscape:connector-curvature="0"
         style="fill:#deeeff;fill-rule:evenodd;stroke:#7d7d7d;stroke-width:1.25;stroke-miterlimit:10"
         d="m 563.61,620.18 0.75683,-0.1075 0.50782,0.40025 0.2783,1.1085 0.4297,0.67375 -0.41505,0.4835 -0.81542,0.26375 -0.9668,0.332 -0.19525,-0.6495 -0.166,-0.9815 0.21975,-0.7715 z"
         id="path1070" />
      <path
         inkscape:connector-curvature="0"
         style="fill:#deeeff;fill-rule:evenodd;stroke:#7d7d7d;stroke-width:1.25;stroke-miterlimit:10"
         d="m 598.43,631.86 0.21475,0.84475 0.039,0.75675 -0.52733,0.32725 -0.44922,-0.34675 -0.0244,-0.664 0.1855,-0.46375 v -0.4345 z"
         id="path1072" />
      <path
         inkscape:connector-curvature="0"
         style="fill:none;stroke:#7d7d7d;stroke-width:2.5;stroke-miterlimit:10"
         d="m 617.2,644.49 c 0,20.01 -16.221,36.235 -36.23,36.235 -20.015,0 -36.235,-16.226 -36.235,-36.235 0,-20.01 16.221,-36.235 36.235,-36.235 20.01,0 36.23,16.226 36.23,36.235"
         id="path1074" />
    </g>
    <g
       transform="matrix(0.26458333,0,0,0.26458333,-19.428353,54.924774)"
       inkscape:label="Calque 1"
       id="layer1-0-1">
      <path
         inkscape:connector-curvature="0"
         style="fill:#e1e1e1;fill-rule:evenodd;stroke:#7d7d7d;stroke-width:3.75;stroke-miterlimit:10"
         d="m 597.5,536.76 15,-15 h 50 l 15,15 v 120 h -80 z"
         id="path1028-8" />
      <path
         inkscape:connector-curvature="0"
         style="fill:#bdbdbd;fill-rule:evenodd;stroke:#9c9c9c;stroke-width:1.25;stroke-miterlimit:10"
         d="m 605,539.26 12.5,-12.5 h 40 l 12.5,12.5 z"
         id="path1030-7" />
      <path
         inkscape:connector-curvature="0"
         style="fill:#bdbdbd;fill-rule:evenodd;stroke:#9c9c9c;stroke-width:1.25;stroke-linejoin:round;stroke-miterlimit:10"
         d="m 606.25,541.76 h 62.5 c 0.6885,0 1.25,0.55663 1.25,1.25 v 107.5 c 0,0.6885 -0.5615,1.25 -1.25,1.25 h -62.5 c -0.69337,0 -1.25,-0.5615 -1.25,-1.25 v -107.5 c 0,-0.69337 0.55663,-1.25 1.25,-1.25"
         id="path1032-9" />
      <path
         inkscape:connector-curvature="0"
         style="fill:#9c9c9c;fill-rule:evenodd;stroke:#7d7d7d;stroke-width:3.75;stroke-linejoin:round;stroke-miterlimit:10"
         d="m 611.25,549.26 h 52.5 c 0.6885,0 1.25,0.55663 1.25,1.25 v 12.5 c 0,0.68848 -0.5615,1.25 -1.25,1.25 h -52.5 c -0.69337,0 -1.25,-0.56152 -1.25,-1.25 v -12.5 c 0,-0.69337 0.55663,-1.25 1.25,-1.25"
         id="path1034-2" />
      <path
         inkscape:connector-curvature="0"
         style="fill:#9c9c9c;fill-rule:evenodd;stroke:#7d7d7d;stroke-width:3.75;stroke-linejoin:round;stroke-miterlimit:10"
         d="m 611.25,571.76 h 52.5 c 0.6885,0 1.25,0.55663 1.25,1.25 v 12.5 c 0,0.68848 -0.5615,1.25 -1.25,1.25 h -52.5 c -0.69337,0 -1.25,-0.56152 -1.25,-1.25 v -12.5 c 0,-0.69337 0.55663,-1.25 1.25,-1.25"
         id="path1036-0" />
      <path
         inkscape:connector-curvature="0"
         style="fill:#9c9c9c;fill-rule:evenodd;stroke:#7d7d7d;stroke-width:3.75;stroke-linejoin:round;stroke-miterlimit:10"
         d="m 633.75,599.26 h 30 c 0.6885,0 1.25,0.56153 1.25,1.25 v 10 c 0,0.68848 -0.5615,1.25 -1.25,1.25 h -30 c -0.6935,0 -1.25,-0.56152 -1.25,-1.25 v -10 c 0,-0.68847 0.5565,-1.25 1.25,-1.25"
         id="path1038-2" />
      <path
         inkscape:connector-curvature="0"
         style="fill:#c51900;fill-rule:evenodd;stroke:#7d7d7d;stroke-width:2.5;stroke-linejoin:round;stroke-miterlimit:10"
         d="m 625,605.51 c 0,8.335 -12.5,8.335 -12.5,0 0,-8.335 12.5,-8.335 12.5,0"
         id="path1040-3" />
      <path
         inkscape:connector-curvature="0"
         style="fill:#9c9c9c;fill-rule:evenodd;stroke:#7d7d7d;stroke-width:2.5;stroke-miterlimit:10"
         d="m 622.5,623.07 h 5 v 27.5 h -5 z"
         id="path1042-7" />
      <path
         inkscape:connector-curvature="0"
         style="fill:#9c9c9c;fill-rule:evenodd;stroke:#7d7d7d;stroke-width:2.5;stroke-miterlimit:10"
         d="m 632.5,623.07 h 5 v 27.5 h -5 z"
         id="path1044-5" />
      <path
         inkscape:connector-curvature="0"
         style="fill:#9c9c9c;fill-rule:evenodd;stroke:#7d7d7d;stroke-width:2.5;stroke-miterlimit:10"
         d="m 642.5,623.07 h 5 v 27.5 h -5 z"
         id="path1046-9" />
      <path
         inkscape:connector-curvature="0"
         style="fill:#9c9c9c;fill-rule:evenodd;stroke:#7d7d7d;stroke-width:2.5;stroke-miterlimit:10"
         d="m 652.5,623.07 h 5 v 27.5 h -5 z"
         id="path1048-2" />
      <path
         inkscape:connector-curvature="0"
         style="fill:#9c9c9c;fill-rule:evenodd;stroke:#7d7d7d;stroke-width:2.5;stroke-miterlimit:10"
         d="m 662.5,623.13 h 5 v 27.5 h -5 z"
         id="path1050-2" />
      <path
         inkscape:connector-curvature="0"
         style="fill:url(#radialGradient5692-6);fill-rule:evenodd;stroke:#262626;stroke-width:2.5;stroke-miterlimit:10"
         d="m 617.2,644.49 c 0,20.01 -16.221,36.235 -36.23,36.235 -20.015,0 -36.235,-16.226 -36.235,-36.235 0,-20.01 16.221,-36.235 36.235,-36.235 20.01,0 36.23,16.226 36.23,36.235"
         id="path1052-8" />
      <path
         inkscape:connector-curvature="0"
         style="fill:#deeeff;fill-rule:evenodd;stroke:#7d7d7d;stroke-width:1.25;stroke-miterlimit:10"
         d="m 561.85,614.67 1.748,-1.2012 2.1777,-1.0644 3.1104,-1.0889 2.8076,-1.0644 3.6816,-0.4883 5.9961,-0.791 7.1142,0.5371 10,3.75 6.25,3.75 7.5,8.75 3.75,10 0.71777,13.242 -1.9531,8.0078 -2.2168,5.3662 -1.0205,0.9375 -0.708,-0.9375 -0.0293,-1.963 0.80077,-2.1828 -0.43945,-2.046 -1.0791,-0.6885 -0.38575,-1.328 -0.60545,-1.2158 -1.0791,-0.245 -0.9375,-0.03 -1.3526,0.71775 -1.8506,2.0165 -2.1289,1.4355 -2.627,-0.0825 -1.4062,-0.74225 -2.1533,-0.0875 -1.0791,-1.1328 -0.13675,-3.0664 -0.41505,-1.4308 -0.66405,-0.88875 v -2.0995 l 0.0585,-1.9042 1.294,-1.2695 v -1.797 l -0.30273,-1.792 0.249,-1.2745 1.4356,-1.9335 0.99608,-0.65925 1.1035,-1.3818 0.83008,-0.80075 1.3526,0.581 2.5146,-0.195 1.0205,-0.664 0.19525,-2.124 1.2988,-0.72275 0.6885,-1.2158 -0.0292,-1.3232 -0.9375,-1.1865 -0.7715,0.71775 -0.58105,0.88375 -0.91307,-0.27825 -0.74708,-1.0205 -0.7422,-0.03 -0.83007,0.8595 -0.61035,0.71775 -0.1905,0.74225 1.0205,1.4648 0.35645,0.4835 0.2245,0.4345 -0.13675,0.165 -0.20025,-0.1025 -0.26855,0.6495 -0.3418,0.2 -0.35158,-0.2 0.21,-0.61025 -0.1855,-0.51275 -0.49805,-0.503 -0.62987,-0.165 -1.0498,-0.03 -0.60548,0.1375 -1.3428,0.786 -0.67383,0.747 0.28808,1.2402 -0.0146,2.0068 -0.46875,0.8545 -1.3525,1.1035 -1.123,-0.24 -0.96192,-1.1378 -0.17575,-1.211 0.72755,-0.8985 0.5371,-0.752 -0.27833,-0.62 -0.7959,-1.6602 -0.97167,-1.1865 -0.68848,0.27825 -0.52247,-0.36125 0.90822,-0.747 0.083,-1.0205 0.49805,-2.2362 0.9668,-1.0498 0.69335,-0.44425 -0.44432,-1.0205 0.21975,-1.1328 0.33202,-0.69325 -1.3281,-1.0988 -1.5723,-0.83 0.55178,3.3398 -1.0205,0.83 -1.0498,0.83 -1.1326,-1.9364 -1.2696,-0.9912 -0.52732,-1.5478 -0.16115,-1.5186 1.958,-2.8711 -1.8506,-0.69337 -0.9375,-1.2695 -1.5478,0.47363 -1.5723,-0.33203 -2.0166,-1.1084 h -1.4355 l -1.3037,-1.0742 -1.9873,0.0244 -1.709,1.1621 -4.4238,0.083 -2.1338,1.6748 -0.89845,0.13182 z"
         id="path1056-9" />
      <path
         inkscape:connector-curvature="0"
         style="fill:#deeeff;fill-rule:evenodd;stroke:#7d7d7d;stroke-width:1.25;stroke-miterlimit:10"
         d="m 586.54,626.88 0.37598,0.1325 0.6885,0.63975 0.8203,0.1325 1.1816,0.3125 0.4834,1.206 -0.53223,0.5175 -0.52247,0.459 -0.57618,-0.34175 0.0978,0.44425 -0.85447,0.26375 -0.7715,0.46875 0.0488,-1.504 0.625,-0.1325 0.36132,-0.1175 0.3955,0.42975 -0.29297,-0.75675 -0.64453,-0.035 -0.50782,-0.82025 -0.2783,-0.65425 z"
         id="path1058-7" />
      <path
         inkscape:connector-curvature="0"
         style="fill:#deeeff;fill-rule:evenodd;stroke:#7d7d7d;stroke-width:1.25;stroke-miterlimit:10"
         d="m 577.13,619.17 0.1855,1.0058 0.83007,0.88875 0.3174,1.4015 0.2245,1.8115 -0.61522,2.2265 -0.41993,0.78125 -1.0108,0.34675 -0.59082,0.63475 -0.542,0.65925 -0.65428,0.835 -0.77637,0.01 -0.72265,-0.464 -0.67383,-0.74225 -0.3174,-0.73725 0.1025,-0.88876 0.28808,-0.37599 0.3174,-0.664 -0.18075,-0.82525 -0.77148,-1.7188 -1.128,-0.9765 -1.0986,0.21 -0.63478,-0.1025 -0.7373,-1.162 -0.88867,-0.18 -0.49315,-0.454 -0.27833,-0.86925 2.2656,0.1175 1.9726,-0.30275 2.1045,-0.0575 1.4502,0.165 1.1572,-0.0146 z"
         id="path1060-3" />
      <path
         inkscape:connector-curvature="0"
         style="fill:#deeeff;fill-rule:evenodd;stroke:#7d7d7d;stroke-width:1.25;stroke-miterlimit:10"
         d="m 580.54,624.95 0.62012,0.0925 1.1426,-0.0146 0.4541,0.52725 0.1075,0.6005 -0.90333,0.332 -0.9082,0.1475 -0.7373,0.53225 -0.46387,0.195 -0.36133,-0.6495 -0.0488,-0.6005 0.39063,-0.376 0.32227,-0.454 z"
         id="path1062-6" />
      <path
         inkscape:connector-curvature="0"
         style="fill:#deeeff;fill-rule:evenodd;stroke:#7d7d7d;stroke-width:1.25;stroke-miterlimit:10"
         d="m 558.5,616.82 2.749,-0.71275 1.0889,1.1085 0.75682,0.8545 -0.55175,1.1328 -0.9375,1.3672 0.52248,0.913 0.2245,0.96674 -0.64943,1.338 0.86915,0.747 0.66408,0.92776 0.078,0.98625 -0.249,1.1377 -0.24425,0.38575 -2.0752,2.085 0.708,1.9775 0.4004,1.5185 1.6699,-1.0352 0.95215,-1.0205 0.80078,-1.2842 1.1035,1.0742 0.91308,0.76175 1.2305,0.0675 0.80078,0.98149 0.11225,1.5185 0.49317,0.86925 0.21,0.91299 0.76173,1.2403 0.7959,1.162 -0.83985,0.5225 -1.0644,-0.49326 -0.73243,-0.84474 -0.205,-0.625 -1.2598,-0.29775 -1.1426,-0.1125 -0.6787,0.371 0.5664,0.76175 0.86915,-0.03 0.76173,0.36125 0.46875,0.8545 0.039,0.9375 -0.6494,0.42975 -1.2549,-0.1125 h -1.1572 l -0.95702,1.0938 -1.7676,1.4062 -0.81542,1.9335 -1.8506,1.9482 -1.4062,0.9815 -0.11225,3.2324 -0.4834,0.165 -0.46875,-0.26375 -0.34668,-0.77625 -0.15125,-1.7382 -1.7236,-0.175 -0.77148,0.371 -1.1768,-0.332 -1.0205,0.664 -0.5127,1.4745 -0.30273,1.3428 0.71778,1.0498 3.0664,0.3175 -0.20025,1.6552 v 1.709 l 4.0674,3.833 2.0215,0.786 0.71778,-0.55675 1.3965,0.69825 2.1826,-0.16 1.6943,-0.0925 1.5088,0.29775 2.3242,2.583 0.85937,0.34675 2.7636,-0.1425 2.2754,2.6026 1.6748,0.0244 0.97168,1.0938 1.001,0.16 1.2549,-0.95225 2.0898,0.045 1.5771,0.625 0.53712,0.537 0.161,1.582 0.58105,1.1132 -0.83495,1.416 -0.166,1.6505 -0.53222,1.6015 -0.81055,1.1378 -1.7432,0.1425 -0.83985,0.32225 -0.97168,1.4648 -1.4892,1.9042 -2.8809,0.185 -5.2686,-0.625 -1.1133,-0.6835 -0.56152,-1.8995 -2.251,-2.251 -2.7637,-0.69325 -1.5332,-2.627 -1.6504,-0.46375 -0.69825,-1.2352 -0.92773,-0.8105 -0.32715,-1.372 0.41993,-2.3632 0.34667,-1.3478 -2.7978,-2.8662 -5.4004,-5.0342 -0.32225,-1.3232 -1.792,-0.7665 -1.1133,-1.4648 -0.13675,-1.9482 v -2.256 l -0.5371,-1.46 -1.5576,-0.32725 -0.3711,-2.5098 0.56153,-3.3447 1.0889,-1.2745 0.27833,-4.2285 1.582,-2.6026 1.9971,-3.2715 0.1855,-1.0938 2.9736,-3.9502 0.9961,-2.6465 1.1182,-2.207 0.3711,-0.85925 z"
         id="path1064-1" />
      <path
         inkscape:connector-curvature="0"
         style="fill:#deeeff;fill-rule:evenodd;stroke:#7d7d7d;stroke-width:1.25;stroke-miterlimit:10"
         d="m 556.98,653.02 0.75682,-0.50775 1.333,0.52725 1.0059,1.3525 1.3525,0.34175 0.34668,0.84949 h 0.50295 l 1.4453,0.36626 0.62012,1.0792 -1.836,-0.16 -0.98632,-0.6885 -0.27343,-0.57125 -0.50782,0.254 -1.9922,-0.918 -1.5381,-1.0108 z"
         id="path1066-2" />
      <path
         inkscape:connector-curvature="0"
         style="fill:#deeeff;fill-rule:evenodd;stroke:#7d7d7d;stroke-width:1.25;stroke-miterlimit:10"
         d="m 568.4,656.29 1.0059,-0.0925 0.91797,0.664 1.582,0.18 1.1474,0.76175 -0.32225,0.80075 -1.377,0.34675 -1.1914,-0.669 -0.68847,0.0675 -0.84473,-0.18 -0.30272,-0.98625 z"
         id="path1068-9" />
      <path
         inkscape:connector-curvature="0"
         style="fill:#deeeff;fill-rule:evenodd;stroke:#7d7d7d;stroke-width:1.25;stroke-miterlimit:10"
         d="m 563.61,620.18 0.75683,-0.1075 0.50782,0.40025 0.2783,1.1085 0.4297,0.67375 -0.41505,0.4835 -0.81542,0.26375 -0.9668,0.332 -0.19525,-0.6495 -0.166,-0.9815 0.21975,-0.7715 z"
         id="path1070-3" />
      <path
         inkscape:connector-curvature="0"
         style="fill:#deeeff;fill-rule:evenodd;stroke:#7d7d7d;stroke-width:1.25;stroke-miterlimit:10"
         d="m 598.43,631.86 0.21475,0.84475 0.039,0.75675 -0.52733,0.32725 -0.44922,-0.34675 -0.0244,-0.664 0.1855,-0.46375 v -0.4345 z"
         id="path1072-1" />
      <path
         inkscape:connector-curvature="0"
         style="fill:none;stroke:#7d7d7d;stroke-width:2.5;stroke-miterlimit:10"
         d="m 617.2,644.49 c 0,20.01 -16.221,36.235 -36.23,36.235 -20.015,0 -36.235,-16.226 -36.235,-36.235 0,-20.01 16.221,-36.235 36.235,-36.235 20.01,0 36.23,16.226 36.23,36.235"
         id="path1074-9" />
    </g>
    <g
       transform="matrix(0.26458333,0,0,0.26458333,17.084148,-15.98356)"
       inkscape:label="Calque 1"
       id="layer1-0-4">
      <path
         inkscape:connector-curvature="0"
         style="fill:#e1e1e1;fill-rule:evenodd;stroke:#7d7d7d;stroke-width:3.75;stroke-miterlimit:10"
         d="m 597.5,536.76 15,-15 h 50 l 15,15 v 120 h -80 z"
         id="path1028-5" />
      <path
         inkscape:connector-curvature="0"
         style="fill:#bdbdbd;fill-rule:evenodd;stroke:#9c9c9c;stroke-width:1.25;stroke-miterlimit:10"
         d="m 605,539.26 12.5,-12.5 h 40 l 12.5,12.5 z"
         id="path1030-0" />
      <path
         inkscape:connector-curvature="0"
         style="fill:#bdbdbd;fill-rule:evenodd;stroke:#9c9c9c;stroke-width:1.25;stroke-linejoin:round;stroke-miterlimit:10"
         d="m 606.25,541.76 h 62.5 c 0.6885,0 1.25,0.55663 1.25,1.25 v 107.5 c 0,0.6885 -0.5615,1.25 -1.25,1.25 h -62.5 c -0.69337,0 -1.25,-0.5615 -1.25,-1.25 v -107.5 c 0,-0.69337 0.55663,-1.25 1.25,-1.25"
         id="path1032-3" />
      <path
         inkscape:connector-curvature="0"
         style="fill:#9c9c9c;fill-rule:evenodd;stroke:#7d7d7d;stroke-width:3.75;stroke-linejoin:round;stroke-miterlimit:10"
         d="m 611.25,549.26 h 52.5 c 0.6885,0 1.25,0.55663 1.25,1.25 v 12.5 c 0,0.68848 -0.5615,1.25 -1.25,1.25 h -52.5 c -0.69337,0 -1.25,-0.56152 -1.25,-1.25 v -12.5 c 0,-0.69337 0.55663,-1.25 1.25,-1.25"
         id="path1034-6" />
      <path
         inkscape:connector-curvature="0"
         style="fill:#9c9c9c;fill-rule:evenodd;stroke:#7d7d7d;stroke-width:3.75;stroke-linejoin:round;stroke-miterlimit:10"
         d="m 611.25,571.76 h 52.5 c 0.6885,0 1.25,0.55663 1.25,1.25 v 12.5 c 0,0.68848 -0.5615,1.25 -1.25,1.25 h -52.5 c -0.69337,0 -1.25,-0.56152 -1.25,-1.25 v -12.5 c 0,-0.69337 0.55663,-1.25 1.25,-1.25"
         id="path1036-1" />
      <path
         inkscape:connector-curvature="0"
         style="fill:#9c9c9c;fill-rule:evenodd;stroke:#7d7d7d;stroke-width:3.75;stroke-linejoin:round;stroke-miterlimit:10"
         d="m 633.75,599.26 h 30 c 0.6885,0 1.25,0.56153 1.25,1.25 v 10 c 0,0.68848 -0.5615,1.25 -1.25,1.25 h -30 c -0.6935,0 -1.25,-0.56152 -1.25,-1.25 v -10 c 0,-0.68847 0.5565,-1.25 1.25,-1.25"
         id="path1038-0" />
      <path
         inkscape:connector-curvature="0"
         style="fill:#c51900;fill-rule:evenodd;stroke:#7d7d7d;stroke-width:2.5;stroke-linejoin:round;stroke-miterlimit:10"
         d="m 625,605.51 c 0,8.335 -12.5,8.335 -12.5,0 0,-8.335 12.5,-8.335 12.5,0"
         id="path1040-6" />
      <path
         inkscape:connector-curvature="0"
         style="fill:#9c9c9c;fill-rule:evenodd;stroke:#7d7d7d;stroke-width:2.5;stroke-miterlimit:10"
         d="m 622.5,623.07 h 5 v 27.5 h -5 z"
         id="path1042-3" />
      <path
         inkscape:connector-curvature="0"
         style="fill:#9c9c9c;fill-rule:evenodd;stroke:#7d7d7d;stroke-width:2.5;stroke-miterlimit:10"
         d="m 632.5,623.07 h 5 v 27.5 h -5 z"
         id="path1044-2" />
      <path
         inkscape:connector-curvature="0"
         style="fill:#9c9c9c;fill-rule:evenodd;stroke:#7d7d7d;stroke-width:2.5;stroke-miterlimit:10"
         d="m 642.5,623.07 h 5 v 27.5 h -5 z"
         id="path1046-0" />
      <path
         inkscape:connector-curvature="0"
         style="fill:#9c9c9c;fill-rule:evenodd;stroke:#7d7d7d;stroke-width:2.5;stroke-miterlimit:10"
         d="m 652.5,623.07 h 5 v 27.5 h -5 z"
         id="path1048-6" />
      <path
         inkscape:connector-curvature="0"
         style="fill:#9c9c9c;fill-rule:evenodd;stroke:#7d7d7d;stroke-width:2.5;stroke-miterlimit:10"
         d="m 662.5,623.13 h 5 v 27.5 h -5 z"
         id="path1050-1" />
      <path
         inkscape:connector-curvature="0"
         style="fill:url(#radialGradient5692-4);fill-rule:evenodd;stroke:#262626;stroke-width:2.5;stroke-miterlimit:10"
         d="m 617.2,644.49 c 0,20.01 -16.221,36.235 -36.23,36.235 -20.015,0 -36.235,-16.226 -36.235,-36.235 0,-20.01 16.221,-36.235 36.235,-36.235 20.01,0 36.23,16.226 36.23,36.235"
         id="path1052-5" />
      <path
         inkscape:connector-curvature="0"
         style="fill:#deeeff;fill-rule:evenodd;stroke:#7d7d7d;stroke-width:1.25;stroke-miterlimit:10"
         d="m 561.85,614.67 1.748,-1.2012 2.1777,-1.0644 3.1104,-1.0889 2.8076,-1.0644 3.6816,-0.4883 5.9961,-0.791 7.1142,0.5371 10,3.75 6.25,3.75 7.5,8.75 3.75,10 0.71777,13.242 -1.9531,8.0078 -2.2168,5.3662 -1.0205,0.9375 -0.708,-0.9375 -0.0293,-1.963 0.80077,-2.1828 -0.43945,-2.046 -1.0791,-0.6885 -0.38575,-1.328 -0.60545,-1.2158 -1.0791,-0.245 -0.9375,-0.03 -1.3526,0.71775 -1.8506,2.0165 -2.1289,1.4355 -2.627,-0.0825 -1.4062,-0.74225 -2.1533,-0.0875 -1.0791,-1.1328 -0.13675,-3.0664 -0.41505,-1.4308 -0.66405,-0.88875 v -2.0995 l 0.0585,-1.9042 1.294,-1.2695 v -1.797 l -0.30273,-1.792 0.249,-1.2745 1.4356,-1.9335 0.99608,-0.65925 1.1035,-1.3818 0.83008,-0.80075 1.3526,0.581 2.5146,-0.195 1.0205,-0.664 0.19525,-2.124 1.2988,-0.72275 0.6885,-1.2158 -0.0292,-1.3232 -0.9375,-1.1865 -0.7715,0.71775 -0.58105,0.88375 -0.91307,-0.27825 -0.74708,-1.0205 -0.7422,-0.03 -0.83007,0.8595 -0.61035,0.71775 -0.1905,0.74225 1.0205,1.4648 0.35645,0.4835 0.2245,0.4345 -0.13675,0.165 -0.20025,-0.1025 -0.26855,0.6495 -0.3418,0.2 -0.35158,-0.2 0.21,-0.61025 -0.1855,-0.51275 -0.49805,-0.503 -0.62987,-0.165 -1.0498,-0.03 -0.60548,0.1375 -1.3428,0.786 -0.67383,0.747 0.28808,1.2402 -0.0146,2.0068 -0.46875,0.8545 -1.3525,1.1035 -1.123,-0.24 -0.96192,-1.1378 -0.17575,-1.211 0.72755,-0.8985 0.5371,-0.752 -0.27833,-0.62 -0.7959,-1.6602 -0.97167,-1.1865 -0.68848,0.27825 -0.52247,-0.36125 0.90822,-0.747 0.083,-1.0205 0.49805,-2.2362 0.9668,-1.0498 0.69335,-0.44425 -0.44432,-1.0205 0.21975,-1.1328 0.33202,-0.69325 -1.3281,-1.0988 -1.5723,-0.83 0.55178,3.3398 -1.0205,0.83 -1.0498,0.83 -1.1326,-1.9364 -1.2696,-0.9912 -0.52732,-1.5478 -0.16115,-1.5186 1.958,-2.8711 -1.8506,-0.69337 -0.9375,-1.2695 -1.5478,0.47363 -1.5723,-0.33203 -2.0166,-1.1084 h -1.4355 l -1.3037,-1.0742 -1.9873,0.0244 -1.709,1.1621 -4.4238,0.083 -2.1338,1.6748 -0.89845,0.13182 z"
         id="path1056-5" />
      <path
         inkscape:connector-curvature="0"
         style="fill:#deeeff;fill-rule:evenodd;stroke:#7d7d7d;stroke-width:1.25;stroke-miterlimit:10"
         d="m 586.54,626.88 0.37598,0.1325 0.6885,0.63975 0.8203,0.1325 1.1816,0.3125 0.4834,1.206 -0.53223,0.5175 -0.52247,0.459 -0.57618,-0.34175 0.0978,0.44425 -0.85447,0.26375 -0.7715,0.46875 0.0488,-1.504 0.625,-0.1325 0.36132,-0.1175 0.3955,0.42975 -0.29297,-0.75675 -0.64453,-0.035 -0.50782,-0.82025 -0.2783,-0.65425 z"
         id="path1058-4" />
      <path
         inkscape:connector-curvature="0"
         style="fill:#deeeff;fill-rule:evenodd;stroke:#7d7d7d;stroke-width:1.25;stroke-miterlimit:10"
         d="m 577.13,619.17 0.1855,1.0058 0.83007,0.88875 0.3174,1.4015 0.2245,1.8115 -0.61522,2.2265 -0.41993,0.78125 -1.0108,0.34675 -0.59082,0.63475 -0.542,0.65925 -0.65428,0.835 -0.77637,0.01 -0.72265,-0.464 -0.67383,-0.74225 -0.3174,-0.73725 0.1025,-0.88876 0.28808,-0.37599 0.3174,-0.664 -0.18075,-0.82525 -0.77148,-1.7188 -1.128,-0.9765 -1.0986,0.21 -0.63478,-0.1025 -0.7373,-1.162 -0.88867,-0.18 -0.49315,-0.454 -0.27833,-0.86925 2.2656,0.1175 1.9726,-0.30275 2.1045,-0.0575 1.4502,0.165 1.1572,-0.0146 z"
         id="path1060-7" />
      <path
         inkscape:connector-curvature="0"
         style="fill:#deeeff;fill-rule:evenodd;stroke:#7d7d7d;stroke-width:1.25;stroke-miterlimit:10"
         d="m 580.54,624.95 0.62012,0.0925 1.1426,-0.0146 0.4541,0.52725 0.1075,0.6005 -0.90333,0.332 -0.9082,0.1475 -0.7373,0.53225 -0.46387,0.195 -0.36133,-0.6495 -0.0488,-0.6005 0.39063,-0.376 0.32227,-0.454 z"
         id="path1062-65" />
      <path
         inkscape:connector-curvature="0"
         style="fill:#deeeff;fill-rule:evenodd;stroke:#7d7d7d;stroke-width:1.25;stroke-miterlimit:10"
         d="m 558.5,616.82 2.749,-0.71275 1.0889,1.1085 0.75682,0.8545 -0.55175,1.1328 -0.9375,1.3672 0.52248,0.913 0.2245,0.96674 -0.64943,1.338 0.86915,0.747 0.66408,0.92776 0.078,0.98625 -0.249,1.1377 -0.24425,0.38575 -2.0752,2.085 0.708,1.9775 0.4004,1.5185 1.6699,-1.0352 0.95215,-1.0205 0.80078,-1.2842 1.1035,1.0742 0.91308,0.76175 1.2305,0.0675 0.80078,0.98149 0.11225,1.5185 0.49317,0.86925 0.21,0.91299 0.76173,1.2403 0.7959,1.162 -0.83985,0.5225 -1.0644,-0.49326 -0.73243,-0.84474 -0.205,-0.625 -1.2598,-0.29775 -1.1426,-0.1125 -0.6787,0.371 0.5664,0.76175 0.86915,-0.03 0.76173,0.36125 0.46875,0.8545 0.039,0.9375 -0.6494,0.42975 -1.2549,-0.1125 h -1.1572 l -0.95702,1.0938 -1.7676,1.4062 -0.81542,1.9335 -1.8506,1.9482 -1.4062,0.9815 -0.11225,3.2324 -0.4834,0.165 -0.46875,-0.26375 -0.34668,-0.77625 -0.15125,-1.7382 -1.7236,-0.175 -0.77148,0.371 -1.1768,-0.332 -1.0205,0.664 -0.5127,1.4745 -0.30273,1.3428 0.71778,1.0498 3.0664,0.3175 -0.20025,1.6552 v 1.709 l 4.0674,3.833 2.0215,0.786 0.71778,-0.55675 1.3965,0.69825 2.1826,-0.16 1.6943,-0.0925 1.5088,0.29775 2.3242,2.583 0.85937,0.34675 2.7636,-0.1425 2.2754,2.6026 1.6748,0.0244 0.97168,1.0938 1.001,0.16 1.2549,-0.95225 2.0898,0.045 1.5771,0.625 0.53712,0.537 0.161,1.582 0.58105,1.1132 -0.83495,1.416 -0.166,1.6505 -0.53222,1.6015 -0.81055,1.1378 -1.7432,0.1425 -0.83985,0.32225 -0.97168,1.4648 -1.4892,1.9042 -2.8809,0.185 -5.2686,-0.625 -1.1133,-0.6835 -0.56152,-1.8995 -2.251,-2.251 -2.7637,-0.69325 -1.5332,-2.627 -1.6504,-0.46375 -0.69825,-1.2352 -0.92773,-0.8105 -0.32715,-1.372 0.41993,-2.3632 0.34667,-1.3478 -2.7978,-2.8662 -5.4004,-5.0342 -0.32225,-1.3232 -1.792,-0.7665 -1.1133,-1.4648 -0.13675,-1.9482 v -2.256 l -0.5371,-1.46 -1.5576,-0.32725 -0.3711,-2.5098 0.56153,-3.3447 1.0889,-1.2745 0.27833,-4.2285 1.582,-2.6026 1.9971,-3.2715 0.1855,-1.0938 2.9736,-3.9502 0.9961,-2.6465 1.1182,-2.207 0.3711,-0.85925 z"
         id="path1064-6" />
      <path
         inkscape:connector-curvature="0"
         style="fill:#deeeff;fill-rule:evenodd;stroke:#7d7d7d;stroke-width:1.25;stroke-miterlimit:10"
         d="m 556.98,653.02 0.75682,-0.50775 1.333,0.52725 1.0059,1.3525 1.3525,0.34175 0.34668,0.84949 h 0.50295 l 1.4453,0.36626 0.62012,1.0792 -1.836,-0.16 -0.98632,-0.6885 -0.27343,-0.57125 -0.50782,0.254 -1.9922,-0.918 -1.5381,-1.0108 z"
         id="path1066-9" />
      <path
         inkscape:connector-curvature="0"
         style="fill:#deeeff;fill-rule:evenodd;stroke:#7d7d7d;stroke-width:1.25;stroke-miterlimit:10"
         d="m 568.4,656.29 1.0059,-0.0925 0.91797,0.664 1.582,0.18 1.1474,0.76175 -0.32225,0.80075 -1.377,0.34675 -1.1914,-0.669 -0.68847,0.0675 -0.84473,-0.18 -0.30272,-0.98625 z"
         id="path1068-3" />
      <path
         inkscape:connector-curvature="0"
         style="fill:#deeeff;fill-rule:evenodd;stroke:#7d7d7d;stroke-width:1.25;stroke-miterlimit:10"
         d="m 563.61,620.18 0.75683,-0.1075 0.50782,0.40025 0.2783,1.1085 0.4297,0.67375 -0.41505,0.4835 -0.81542,0.26375 -0.9668,0.332 -0.19525,-0.6495 -0.166,-0.9815 0.21975,-0.7715 z"
         id="path1070-7" />
      <path
         inkscape:connector-curvature="0"
         style="fill:#deeeff;fill-rule:evenodd;stroke:#7d7d7d;stroke-width:1.25;stroke-miterlimit:10"
         d="m 598.43,631.86 0.21475,0.84475 0.039,0.75675 -0.52733,0.32725 -0.44922,-0.34675 -0.0244,-0.664 0.1855,-0.46375 v -0.4345 z"
         id="path1072-4" />
      <path
         inkscape:connector-curvature="0"
         style="fill:none;stroke:#7d7d7d;stroke-width:2.5;stroke-miterlimit:10"
         d="m 617.2,644.49 c 0,20.01 -16.221,36.235 -36.23,36.235 -20.015,0 -36.235,-16.226 -36.235,-36.235 0,-20.01 16.221,-36.235 36.235,-36.235 20.01,0 36.23,16.226 36.23,36.235"
         id="path1074-5" />
    </g>
    <g
       id="g2300"
       transform="matrix(0.75,0,0,0.75,203.51867,12.2251)">
      <g
         transform="matrix(0.26458333,0,0,0.26458333,-198.18788,165.53201)"
         id="g2212">
        <g
           transform="translate(-92,-63.999774)"
           id="layer3"
           style="display:inline">
          <g
             id="layer5">
            <path
               inkscape:connector-curvature="0"
               d="m 264.513,77.977773 -4.917,19.529001 c 6.965,-13.793001 18.027,-24.172001 30.729,-33.323001 -9.287,10.789 -17.754,21.579001 -22.944,32.368001 8.741,-12.292001 20.486,-19.120001 33.733,-23.627001 -17.618,15.706001 -31.60228,32.559277 -42.25528,49.494277 l -8.467,-3.687 c 1.501,-13.521 6.60928,-27.369276 14.12128,-40.754277 z"
               id="path2554"
               style="fill:#abcd03" />
            <path
               inkscape:connector-curvature="0"
               d="m 241.90113,115.14152 16.116,6.68594 c 0,4.098 -0.33313,16.59703 2.22938,20.28403 26.80289,34.5191 22.29349,103.71329 -5.42951,105.48829 -42.21656,0 -58.317,-28.679 -58.317,-55.03801 0,-24.037 28.816,-40.016 46.025,-54.219 4.37,-3.824 3.61113,-12.27525 -0.62387,-23.20125 z"
               id="path2534"
               style="fill:#fffcdb" />
            <path
               inkscape:connector-curvature="0"
               d="m 258.02197,121.58695 5.80803,2.96282 c -0.546,3.823 0.273,12.292 4.096,14.476 16.936,10.516 32.914,21.988 39.197,33.46 22.398,40.42601 -15.706,77.84601 -48.62,74.29501 17.891,-13.248 23.081,-40.42501 16.389,-70.06201 -2.731,-11.609 -6.966,-22.125 -14.478,-34.007 -3.25421,-5.83246 -2.11803,-13.06582 -2.39203,-21.12482 z"
               id="path2536"
               style="fill:#7d4698" />
          </g>
          <g
             id="layer4"
             style="display:inline">
            <path
               inkscape:connector-curvature="0"
               d="m 255.226,120.58877 12.018,1.639 c -3.551,11.745 6.966,19.939 10.38,21.852 7.64801,4.234 15.02301,8.604 20.89601,13.93 11.063,10.106 17.345,24.31 17.345,39.333 0,14.886 -6.829,29.226 -18.301,38.786 -10.789,9.014 -25.67501,12.838 -40.15201,12.838 -9.014,0 -17.072,-0.409 -25.812,-3.278 -19.939,-6.692 -34.826,-23.763 -36.055,-44.25 -1.093,-15.979 2.458,-28.134 14.887,-40.835 6.418,-6.692 19.393,-14.34 28.271,-20.486 4.371,-3.005 9.014,-11.473 0.136,-27.451 l 1.776,-1.366 13.15659,8.81203 -11.10759,-4.57803 c 0.956,1.366 3.551,7.512 4.098,9.287 1.229,5.053 0.683,9.971 -0.41,12.155 -5.599,10.107 -15.159,12.838 -22.124,18.574 -12.292,10.106 -25.676,18.164 -24.174,45.888 0.683,13.657 11.336,30.319 27.314,38.104 9.014,4.371 19.394,6.146 29.91,6.692 9.423,0.41 27.45101,-5.19 37.28401,-13.384 10.516,-8.74 16.389,-21.988 16.389,-35.508 0,-13.658 -5.463,-26.632 -15.706,-35.783 -5.873,-5.326 -15.56901,-11.745 -21.57801,-15.16 -6.009,-3.414 -13.521,-12.974 -11.063,-22.124 z"
               id="path2538" />
            <path
               inkscape:connector-curvature="0"
               d="m 251.539,140.80177 c -1.229,6.283 -2.595,17.618 -8.058,21.852 -2.322,1.638 -4.644,3.278 -7.102,4.916 -9.833,6.693 -19.667,12.974 -24.173,29.09 -0.956,3.415 -0.136,7.102 0.684,10.516 2.458,9.833 9.423,20.486 14.886,26.769 0,0.273 1.093,0.956 1.093,1.229 4.507,5.327 5.873,6.829 22.944,10.652 l -0.41,1.913 c -10.243,-2.731 -18.71,-5.189 -24.037,-11.336 0,-0.136 -0.956,-1.093 -0.956,-1.093 -5.736,-6.556 -12.702,-17.481 -15.296,-27.724 -0.956,-4.098 -1.775,-7.238 -0.683,-11.473 4.643,-16.661 14.75,-23.217 24.993,-30.182 2.322,-1.502 5.053,-2.869 7.238,-4.644 4.233,-3.14 6.554,-12.701 8.877,-20.485 z"
               id="path2540" />
            <path
               inkscape:connector-curvature="0"
               d="m 255.90625,166.74951 c 0.137,7.102 -0.55625,10.66475 1.21875,15.71875 1.092,3.004 4.782,7.1015 5.875,11.0625 1.502,5.327 3.138,11.19901 3,14.75001 0,4.09799 -0.25625,11.74249 -2.03125,19.93749 -1.35362,6.77108 -4.47323,12.58153 -9.71875,15.875 -5.37327,-1.10644 -11.68224,-2.99521 -15.40625,-6.1875 -7.238,-6.282 -13.64875,-16.7865 -14.46875,-25.9375 -0.682,-7.51099 6.27275,-18.5885 15.96875,-24.1875 8.194,-4.78 10.1,-10.22775 11.875,-18.96875 -2.458,7.648 -4.7665,14.05925 -12.6875,18.15625 -11.472,6.009 -17.3585,16.09626 -16.8125,25.65625 0.819,12.291 5.7415,20.6195 15.4375,27.3125 4.097,2.868 11.75125,5.89875 16.53125,6.71875 v -0.625 c 3.62493,-0.67888 8.31818,-6.63267 10.65625,-14.6875 2.049,-7.238 2.85675,-16.502 2.71875,-22.37499 -0.137,-3.414 -1.643,-10.80801 -4.375,-17.50001 -1.502,-3.687 -3.8095,-7.37375 -5.3125,-9.96875 -1.637,-2.597 -1.64875,-8.195 -2.46875,-14.75 z"
               id="path2542" />
            <path
               inkscape:connector-curvature="0"
               d="m 255.09375,193.53076 c 0.136,4.78 2.056,10.90451 2.875,17.18751 0.684,4.64399 0.387,9.30824 0.25,13.40624 -0.13495,4.74323 -1.7152,13.24218 -3.875,17.375 -2.03673,-0.93403 -2.83294,-1.99922 -4.15625,-3.71875 -1.638,-2.322 -2.75075,-4.644 -3.84375,-7.375 -0.819,-2.049 -1.7765,-4.394 -2.1875,-7.125 -0.546,-4.097 -0.393,-10.5065 4.25,-17.06249 3.551,-5.19001 4.36475,-5.58476 5.59375,-11.59376 -1.64,5.326 -2.8625,5.869 -6.6875,10.37501 -4.233,4.917 -4.9375,12.15924 -4.9375,18.03124 0,2.459 0.9805,5.18725 1.9375,7.78125 1.092,2.732 2.02925,5.452 3.53125,7.5 2.25796,3.32082 5.14798,5.20922 6.5625,5.5625 0.009,0.002 0.022,-0.002 0.0312,0 0.0303,0.007 0.0649,0.0255 0.0937,0.0312 v -0.15625 c 2.64982,-2.95437 4.24444,-5.88934 4.78125,-8.84375 0.683,-3.551 0.84,-7.10975 1.25,-11.34375 0.409,-3.551 0.11225,-8.334 -0.84375,-13.24999 -1.365,-6.146 -3.669,-12.41226 -4.625,-16.78126 z"
               id="path2544" />
            <path
               inkscape:connector-curvature="0"
               d="m 255.499,135.06577 c 0.137,7.101 0.683,20.35 2.595,25.539 0.546,1.775 5.599,9.56 9.149,18.983 2.459,6.556 3.005,12.565 3.415,14.34 1.639,7.785 -0.41,20.896 -3.142,33.324 -1.365,6.692 -6.009,15.023 -11.335,18.301 l -1.092,1.912 c 3.005,-0.137 10.379,-7.375 12.974,-16.389 4.371,-15.296 6.146,-22.398 4.098,-39.333 -0.273,-1.64 -0.956,-7.238 -3.551,-13.248 -3.824,-9.151 -9.287,-17.891 -9.969,-19.667 -1.23,-2.867 -2.869,-15.295 -3.142,-23.762 z"
               id="path2550" />
            <path
               inkscape:connector-curvature="0"
               d="m 258.06151,125.35303 c -0.40515,7.29812 -0.51351,9.98574 0.85149,15.31174 1.502,5.873 9.151,14.34 12.292,24.037 6.009,18.574 4.507,42.884 0.136,61.867 -1.638,6.691 -9.424,16.389 -17.208,19.529 l 5.736,1.366 c 3.141,-0.137 11.198,-7.648 14.34,-16.252 5.052,-13.521 6.009,-29.636 3.96,-46.571 -0.137,-1.639 -2.869,-16.252 -5.463,-22.398 -3.688,-9.15 -10.244,-17.345 -10.926,-19.119 -1.228,-3.005 -3.92651,-9.24362 -3.71849,-17.77074 z"
               id="path2552" />
            <rect
               width="0.550412"
               height="126.01891"
               x="253.71959"
               y="120.21686"
               id="rect2556" />
          </g>
        </g>
        <path
           inkscape:connector-curvature="0"
           d="M 7.9430002,18.074997 H 117.611 c 4.096,0 7.647,3.414 7.647,7.648 v 32.367 c 0,4.234 -3.551,7.649 -7.647,7.649 H 95.077 c -5.054,0 -7.239,2.867 -7.239,6.145 V 177.86401 c 0,3.551 -2.868,6.282 -6.282,6.282 H 44.272 c -3.415,0 -6.146,-2.731 -6.146,-6.282 V 70.928997 c 0,-3.278 -3.005,-5.189 -5.326,-5.189 H 7.9430002 c -4.234,0 -7.64799997,-3.415 -7.64799997,-7.649 v -32.368 c -0.001,-4.234 3.41299997,-7.648 7.64799997,-7.648 z"
           id="path2528"
           style="fill:#7d4698" />
        <path
           inkscape:connector-curvature="0"
           d="m 289.30687,60.958997 h 9.696 c 3.551,0 6.419,2.868 6.419,6.282 V 101.931 c 0,4.507 0.273,6.282 -5.19,6.282 -10.789,0 -15.705,5.736 -15.705,12.018 v 58.58901 c 0,2.732 -2.595,5.053 -5.736,5.053 h -34.827 c -3.141,0 -5.736,-2.321 -5.736,-5.053 V 112.036 c -0.0378,-1.17441 -0.0148,-2.9081 0.137,-3.823 1.912,-24.720003 21.30753,-44.497863 45.888,-46.981003 0.82399,-0.0832 3.73943,-0.273 5.054,-0.273 z"
           id="path2532"
           style="fill:#7d4698" />
      </g>
      <path
         inkscape:connector-curvature="0"
         id="path2281"
         d="m -217.75467,213.51083 c -5.23346,-1.63558 -9.90268,-5.64889 -12.34333,-10.6094 -1.13229,-2.30135 -1.30179,-3.36924 -1.30179,-8.20208 0,-5.03847 0.13552,-5.81331 1.45423,-8.31484 0.79982,-1.51722 2.17562,-3.58022 3.05733,-4.58443 3.77979,-4.30494 10.7604,-7.08135 16.35308,-6.50413 l 2.89584,0.29887 2.79097,-3.08412 c 4.94602,-5.46553 11.2551,-8.50301 17.6614,-8.50301 h 3.10814 l 2.10931,-3.10611 c 4.40666,-6.48909 12.51703,-12.08983 20.39859,-14.08655 4.04895,-1.02577 12.39744,-1.02577 16.44639,0 9.85245,2.49603 18.25852,9.27034 22.64959,18.25293 l 2.42032,4.95111 5.44616,0.0673 c 3.9784,0.0492 6.0879,0.33238 7.8274,1.05076 11.458572,4.73219 17.23441,16.1999 13.771554,27.3429 -2.161657,6.95591 -7.790824,12.60921 -14.671574,14.73446 -3.35573,1.03648 -4.79436,1.06307 -55.64426,1.02859 -41.61488,-0.0282 -52.65162,-0.17671 -54.42935,-0.73229 z"
         style="fill:none;fill-opacity:1;fill-rule:nonzero;stroke:#000000;stroke-width:2;stroke-miterlimit:4;stroke-dasharray:none;stroke-opacity:1" />
    </g>
    <path
       style="fill:none;fill-rule:evenodd;stroke:#7d4698;stroke-width:0.5;stroke-linecap:butt;stroke-linejoin:miter;stroke-miterlimit:4;stroke-dasharray:none;stroke-opacity:1;marker-start:url(#Arrow1Lstart);marker-end:url(#Arrow1Lend)"
       d="m -46.237438,156.46385 31.430896,-0.74836"
       id="path3223"
       inkscape:connector-curvature="0" />
    <path
       style="fill:none;stroke:#7d4698;stroke-width:0.465;stroke-linecap:butt;stroke-linejoin:miter;stroke-miterlimit:4;stroke-dasharray:none;stroke-opacity:1;marker-start:url(#marker3621);marker-end:url(#marker4049)"
       d="m 7.6275191,156.46386 22.3553919,0.0468"
       id="path5628"
       inkscape:connector-curvature="0" />
    <path
       style="fill:none;stroke:#000000;stroke-width:0.565;stroke-linecap:butt;stroke-linejoin:miter;stroke-miterlimit:4;stroke-dasharray:none;stroke-opacity:1;marker-start:url(#marker5670);marker-end:url(#marker5734)"
       d="M 107.10142,129.5454 148.33478,93.225851"
       id="path5660"
       inkscape:connector-curvature="0" />
    <path
       style="fill:none;stroke:#000000;stroke-width:0.565;stroke-linecap:butt;stroke-linejoin:miter;stroke-miterlimit:4;stroke-dasharray:none;stroke-opacity:1;marker-start:url(#marker5866);marker-end:url(#marker5942)"
       d="m 134.37995,154.18475 40.79274,-15.6814"
       id="path5856"
       inkscape:connector-curvature="0" />
    <path
       style="fill:none;stroke:#000000;stroke-width:0.565;stroke-linecap:butt;stroke-linejoin:miter;stroke-miterlimit:4;stroke-dasharray:none;stroke-opacity:1;marker-start:url(#marker6062);marker-end:url(#marker6150)"
       d="m 124.33551,171.55473 16.95066,22.7618"
       id="path6052"
       inkscape:connector-curvature="0" />
    <g
       transform="translate(-99.549182,51.753066)"
       id="layer1-62"
       inkscape:label="Layer 1">
      <g
         transform="translate(-13.126051,-13.279915)"
         id="g12845">
        <g
           transform="matrix(0.26458333,0,0,0.26458333,51.333497,21.924042)"
           inkscape:label="Calque 1"
           id="layer1-1-8-0">
          <path
             inkscape:connector-curvature="0"
             style="fill:#e1e1e1;fill-rule:evenodd;stroke:#7d7d7d;stroke-width:3.75;stroke-miterlimit:10"
             d="m 180,314.15 15,-15 h 50 l 15,15 v 120 h -80 z"
             id="path256-7-6" />
          <path
             inkscape:connector-curvature="0"
             style="fill:#bdbdbd;fill-rule:evenodd;stroke:#9c9c9c;stroke-width:1.25;stroke-miterlimit:10"
             d="m 187.5,316.65 12.5,-12.5 h 40 l 12.5,12.5 z"
             id="path258-0-4" />
          <path
             inkscape:connector-curvature="0"
             style="fill:#bdbdbd;fill-rule:evenodd;stroke:#9c9c9c;stroke-width:1.25;stroke-linejoin:round;stroke-miterlimit:10"
             d="m 188.75,319.15 h 62.5 c 0.6885,0 1.25,0.56152 1.25,1.25 v 107.5 c 0,0.6885 -0.5615,1.25 -1.25,1.25 h -62.5 c -0.69325,0 -1.25,-0.5615 -1.25,-1.25 V 320.4 c 0,-0.68848 0.55675,-1.25 1.25,-1.25"
             id="path260-8-7" />
          <path
             inkscape:connector-curvature="0"
             style="fill:#9c9c9c;fill-rule:evenodd;stroke:#7d7d7d;stroke-width:3.75;stroke-linejoin:round;stroke-miterlimit:10"
             d="m 193.75,326.65 h 52.5 c 0.6885,0 1.25,0.56152 1.25,1.25 v 12.5 c 0,0.68847 -0.5615,1.25 -1.25,1.25 h -52.5 c -0.69325,0 -1.25,-0.56153 -1.25,-1.25 v -12.5 c 0,-0.68848 0.55675,-1.25 1.25,-1.25"
             id="path262-6-4" />
          <path
             inkscape:connector-curvature="0"
             style="fill:#9c9c9c;fill-rule:evenodd;stroke:#7d7d7d;stroke-width:3.75;stroke-linejoin:round;stroke-miterlimit:10"
             d="m 193.75,349.15 h 52.5 c 0.6885,0 1.25,0.56152 1.25,1.25 v 12.5 c 0,0.68847 -0.5615,1.25 -1.25,1.25 h -52.5 c -0.69325,0 -1.25,-0.56153 -1.25,-1.25 v -12.5 c 0,-0.68848 0.55675,-1.25 1.25,-1.25"
             id="path264-2-8" />
          <path
             inkscape:connector-curvature="0"
             style="fill:#9c9c9c;fill-rule:evenodd;stroke:#7d7d7d;stroke-width:3.75;stroke-linejoin:round;stroke-miterlimit:10"
             d="m 216.25,376.65 h 30 c 0.6885,0 1.25,0.56152 1.25,1.25 v 10 c 0,0.69325 -0.5615,1.25 -1.25,1.25 h -30 c -0.69325,0 -1.25,-0.55675 -1.25,-1.25 v -10 c 0,-0.68848 0.55675,-1.25 1.25,-1.25"
             id="path266-4-5" />
          <path
             inkscape:connector-curvature="0"
             style="fill:#c51900;fill-rule:evenodd;stroke:#7d7d7d;stroke-width:2.5;stroke-linejoin:round;stroke-miterlimit:10"
             d="m 207.5,382.9 c 0,8.335 -12.5,8.335 -12.5,0 0,-8.3301 12.5,-8.3301 12.5,0"
             id="path268-7-8" />
          <path
             inkscape:connector-curvature="0"
             style="fill:#9c9c9c;fill-rule:evenodd;stroke:#7d7d7d;stroke-width:2.5;stroke-miterlimit:10"
             d="m 205,400.46 h 5 v 27.5 h -5 z"
             id="path270-9-2" />
          <path
             inkscape:connector-curvature="0"
             style="fill:#9c9c9c;fill-rule:evenodd;stroke:#7d7d7d;stroke-width:2.5;stroke-miterlimit:10"
             d="m 215,400.46 h 5 v 27.5 h -5 z"
             id="path272-3-6" />
          <path
             inkscape:connector-curvature="0"
             style="fill:#9c9c9c;fill-rule:evenodd;stroke:#7d7d7d;stroke-width:2.5;stroke-miterlimit:10"
             d="m 225,400.46 h 5 v 27.5 h -5 z"
             id="path274-9-0" />
          <path
             inkscape:connector-curvature="0"
             style="fill:#9c9c9c;fill-rule:evenodd;stroke:#7d7d7d;stroke-width:2.5;stroke-miterlimit:10"
             d="m 235,400.46 h 5 v 27.5 h -5 z"
             id="path276-2-6" />
          <path
             inkscape:connector-curvature="0"
             style="fill:#9c9c9c;fill-rule:evenodd;stroke:#7d7d7d;stroke-width:2.5;stroke-miterlimit:10"
             d="m 245,400.51 h 5 v 27.5 h -5 z"
             id="path278-8-6" />
        </g>
        <g
           style="display:inline"
           id="layer3-4"
           transform="matrix(0.14857682,0,0,0.14857681,61.057479,108.03871)">
          <g
             id="layer5-6">
            <path
               inkscape:connector-curvature="0"
               style="fill:#68b030"
               id="path2554-2"
               d="m 264.513,77.977773 -4.917,19.529001 c 6.965,-13.793001 18.027,-24.172001 30.729,-33.323001 -9.287,10.789 -17.754,21.579001 -22.944,32.368001 8.741,-12.292001 20.486,-19.120001 33.733,-23.627001 -17.618,15.706001 -31.60228,32.559277 -42.25528,49.494277 l -8.467,-3.687 c 1.501,-13.521 6.60928,-27.369276 14.12128,-40.754277 z" />
            <path
               inkscape:connector-curvature="0"
               style="fill:#fffcdb"
               id="path2534-8"
               d="m 241.90113,115.14152 16.116,6.68594 c 0,4.098 -0.33313,16.59703 2.22938,20.28403 26.80289,34.5191 22.29349,103.71329 -5.42951,105.48829 -42.21656,0 -58.317,-28.679 -58.317,-55.03801 0,-24.037 28.816,-40.016 46.025,-54.219 4.37,-3.824 3.61113,-12.27525 -0.62387,-23.20125 z" />
            <path
               inkscape:connector-curvature="0"
               style="fill:#7d4698"
               id="path2536-9"
               d="m 258.02197,121.58695 5.80803,2.96282 c -0.546,3.823 0.273,12.292 4.096,14.476 16.936,10.516 32.914,21.988 39.197,33.46 22.398,40.42601 -15.706,77.84601 -48.62,74.29501 17.891,-13.248 23.081,-40.42501 16.389,-70.06201 -2.731,-11.609 -6.966,-22.125 -14.478,-34.007 -3.25421,-5.83246 -2.11803,-13.06582 -2.39203,-21.12482 z" />
          </g>
          <g
             style="display:inline"
             id="layer4-6">
            <path
               inkscape:connector-curvature="0"
               id="path2538-0"
               d="m 255.226,120.58877 12.018,1.639 c -3.551,11.745 6.966,19.939 10.38,21.852 7.64801,4.234 15.02301,8.604 20.89601,13.93 11.063,10.106 17.345,24.31 17.345,39.333 0,14.886 -6.829,29.226 -18.301,38.786 -10.789,9.014 -25.67501,12.838 -40.15201,12.838 -9.014,0 -17.072,-0.409 -25.812,-3.278 -19.939,-6.692 -34.826,-23.763 -36.055,-44.25 -1.093,-15.979 2.458,-28.134 14.887,-40.835 6.418,-6.692 19.393,-14.34 28.271,-20.486 4.371,-3.005 9.014,-11.473 0.136,-27.451 l 1.776,-1.366 13.15659,8.81203 -11.10759,-4.57803 c 0.956,1.366 3.551,7.512 4.098,9.287 1.229,5.053 0.683,9.971 -0.41,12.155 -5.599,10.107 -15.159,12.838 -22.124,18.574 -12.292,10.106 -25.676,18.164 -24.174,45.888 0.683,13.657 11.336,30.319 27.314,38.104 9.014,4.371 19.394,6.146 29.91,6.692 9.423,0.41 27.45101,-5.19 37.28401,-13.384 10.516,-8.74 16.389,-21.988 16.389,-35.508 0,-13.658 -5.463,-26.632 -15.706,-35.783 -5.873,-5.326 -15.56901,-11.745 -21.57801,-15.16 -6.009,-3.414 -13.521,-12.974 -11.063,-22.124 z" />
            <path
               inkscape:connector-curvature="0"
               id="path2540-7"
               d="m 251.539,140.80177 c -1.229,6.283 -2.595,17.618 -8.058,21.852 -2.322,1.638 -4.644,3.278 -7.102,4.916 -9.833,6.693 -19.667,12.974 -24.173,29.09 -0.956,3.415 -0.136,7.102 0.684,10.516 2.458,9.833 9.423,20.486 14.886,26.769 0,0.273 1.093,0.956 1.093,1.229 4.507,5.327 5.873,6.829 22.944,10.652 l -0.41,1.913 c -10.243,-2.731 -18.71,-5.189 -24.037,-11.336 0,-0.136 -0.956,-1.093 -0.956,-1.093 -5.736,-6.556 -12.702,-17.481 -15.296,-27.724 -0.956,-4.098 -1.775,-7.238 -0.683,-11.473 4.643,-16.661 14.75,-23.217 24.993,-30.182 2.322,-1.502 5.053,-2.869 7.238,-4.644 4.233,-3.14 6.554,-12.701 8.877,-20.485 z" />
            <path
               inkscape:connector-curvature="0"
               id="path2542-0"
               d="m 255.90625,166.74951 c 0.137,7.102 -0.55625,10.66475 1.21875,15.71875 1.092,3.004 4.782,7.1015 5.875,11.0625 1.502,5.327 3.138,11.19901 3,14.75001 0,4.09799 -0.25625,11.74249 -2.03125,19.93749 -1.35362,6.77108 -4.47323,12.58153 -9.71875,15.875 -5.37327,-1.10644 -11.68224,-2.99521 -15.40625,-6.1875 -7.238,-6.282 -13.64875,-16.7865 -14.46875,-25.9375 -0.682,-7.51099 6.27275,-18.5885 15.96875,-24.1875 8.194,-4.78 10.1,-10.22775 11.875,-18.96875 -2.458,7.648 -4.7665,14.05925 -12.6875,18.15625 -11.472,6.009 -17.3585,16.09626 -16.8125,25.65625 0.819,12.291 5.7415,20.6195 15.4375,27.3125 4.097,2.868 11.75125,5.89875 16.53125,6.71875 v -0.625 c 3.62493,-0.67888 8.31818,-6.63267 10.65625,-14.6875 2.049,-7.238 2.85675,-16.502 2.71875,-22.37499 -0.137,-3.414 -1.643,-10.80801 -4.375,-17.50001 -1.502,-3.687 -3.8095,-7.37375 -5.3125,-9.96875 -1.637,-2.597 -1.64875,-8.195 -2.46875,-14.75 z" />
            <path
               inkscape:connector-curvature="0"
               id="path2544-1"
               d="m 255.09375,193.53076 c 0.136,4.78 2.056,10.90451 2.875,17.18751 0.684,4.64399 0.387,9.30824 0.25,13.40624 -0.13495,4.74323 -1.7152,13.24218 -3.875,17.375 -2.03673,-0.93403 -2.83294,-1.99922 -4.15625,-3.71875 -1.638,-2.322 -2.75075,-4.644 -3.84375,-7.375 -0.819,-2.049 -1.7765,-4.394 -2.1875,-7.125 -0.546,-4.097 -0.393,-10.5065 4.25,-17.06249 3.551,-5.19001 4.36475,-5.58476 5.59375,-11.59376 -1.64,5.326 -2.8625,5.869 -6.6875,10.37501 -4.233,4.917 -4.9375,12.15924 -4.9375,18.03124 0,2.459 0.9805,5.18725 1.9375,7.78125 1.092,2.732 2.02925,5.452 3.53125,7.5 2.25796,3.32082 5.14798,5.20922 6.5625,5.5625 0.009,0.002 0.022,-0.002 0.0312,0 0.0303,0.007 0.0649,0.0255 0.0937,0.0312 v -0.15625 c 2.64982,-2.95437 4.24444,-5.88934 4.78125,-8.84375 0.683,-3.551 0.84,-7.10975 1.25,-11.34375 0.409,-3.551 0.11225,-8.334 -0.84375,-13.24999 -1.365,-6.146 -3.669,-12.41226 -4.625,-16.78126 z" />
            <path
               inkscape:connector-curvature="0"
               id="path2550-0"
               d="m 255.499,135.06577 c 0.137,7.101 0.683,20.35 2.595,25.539 0.546,1.775 5.599,9.56 9.149,18.983 2.459,6.556 3.005,12.565 3.415,14.34 1.639,7.785 -0.41,20.896 -3.142,33.324 -1.365,6.692 -6.009,15.023 -11.335,18.301 l -1.092,1.912 c 3.005,-0.137 10.379,-7.375 12.974,-16.389 4.371,-15.296 6.146,-22.398 4.098,-39.333 -0.273,-1.64 -0.956,-7.238 -3.551,-13.248 -3.824,-9.151 -9.287,-17.891 -9.969,-19.667 -1.23,-2.867 -2.869,-15.295 -3.142,-23.762 z" />
            <path
               inkscape:connector-curvature="0"
               id="path2552-1"
               d="m 258.06151,125.35303 c -0.40515,7.29812 -0.51351,9.98574 0.85149,15.31174 1.502,5.873 9.151,14.34 12.292,24.037 6.009,18.574 4.507,42.884 0.136,61.867 -1.638,6.691 -9.424,16.389 -17.208,19.529 l 5.736,1.366 c 3.141,-0.137 11.198,-7.648 14.34,-16.252 5.052,-13.521 6.009,-29.636 3.96,-46.571 -0.137,-1.639 -2.869,-16.252 -5.463,-22.398 -3.688,-9.15 -10.244,-17.345 -10.926,-19.119 -1.228,-3.005 -3.92651,-9.24362 -3.71849,-17.77074 z" />
            <rect
               id="rect2556-3"
               y="120.21686"
               x="253.71959"
               height="126.01891"
               width="0.550412" />
          </g>
        </g>
      </g>
    </g>
  </g>
</svg>
